<svg width="75" height="67" viewBox="0 0 75 67" fill="none" xmlns="http://www.w3.org/2000/svg">
<path d="M67.76 7.54175C63.8291 3.60056 60.8444 0.759836 53.0689 0.759836C45.2933 0.759836 41.9973 6.33046 37.5 9.6106C32.7817 6.10118 29.5369 0.714852 21.0644 0.714844C13.1422 0.714844 9.83747 4.19971 6.00132 8.65641C2.16518 13.1131 0.160137 18.8578 0.389975 24.7336C0.619813 30.6095 3.06746 36.18 7.24001 40.3234L30.2688 63.3892C32.1972 65.2871 34.7944 66.3508 37.5 66.3508C40.2057 66.3508 42.8029 65.2871 44.7313 63.3892L67.76 40.3234C72.0898 35.9671 74.52 30.0746 74.52 23.9326C74.52 17.7906 72.0898 11.898 67.76 7.54175Z" fill="#233BEF"/>
</svg>
