<svg width="27" height="24" viewBox="0 0 27 24" fill="none" xmlns="http://www.w3.org/2000/svg">
<path d="M24.0426 2.58907C22.6598 1.20264 21.6099 0.203327 18.8746 0.203327C16.1393 0.203327 14.9798 2.16296 13.3977 3.31685C11.738 2.08231 10.5965 0.187503 7.61602 0.1875C4.82914 0.1875 3.66661 1.41341 2.31713 2.98119C0.96765 4.54897 0.262317 6.56984 0.34317 8.63684C0.424022 10.7038 1.28505 12.6634 2.75288 14.121L10.8539 22.2351C11.5323 22.9027 12.446 23.2769 13.3977 23.2769C14.3495 23.2769 15.2632 22.9027 15.9416 22.2351L24.0426 14.121C25.5658 12.5886 26.4207 10.5157 26.4207 8.35504C26.4207 6.1944 25.5658 4.12153 24.0426 2.58907Z" fill="white"/>
</svg>
