<svg width="21" height="20" viewBox="0 0 21 20" fill="none" xmlns="http://www.w3.org/2000/svg">
<path d="M11.0001 0C9.68689 0 8.38653 0.258658 7.17328 0.761205C5.96002 1.26375 4.85763 2.00035 3.92904 2.92893C2.05368 4.8043 1.00011 7.34784 1.00011 10C0.991368 12.3091 1.7909 14.5485 3.26011 16.33L1.26011 18.33C1.12135 18.4706 1.02736 18.6492 0.989982 18.8432C0.952608 19.0372 0.973531 19.2379 1.05011 19.42C1.13317 19.5999 1.26781 19.7511 1.43696 19.8544C1.6061 19.9577 1.80211 20.0083 2.00011 20H11.0001C13.6523 20 16.1958 18.9464 18.0712 17.0711C19.9465 15.1957 21.0001 12.6522 21.0001 10C21.0001 7.34784 19.9465 4.8043 18.0712 2.92893C16.1958 1.05357 13.6523 0 11.0001 0ZM11.0001 18H4.41011L5.34011 17.07C5.52636 16.8826 5.6309 16.6292 5.6309 16.365C5.6309 16.1008 5.52636 15.8474 5.34011 15.66C4.0307 14.352 3.21528 12.6305 3.0328 10.7888C2.85032 8.94705 3.31205 7.09901 4.33934 5.55952C5.36662 4.02004 6.8959 2.88436 8.66663 2.34597C10.4374 1.80759 12.34 1.8998 14.0503 2.60691C15.7607 3.31402 17.173 4.59227 18.0465 6.22389C18.9201 7.85551 19.201 9.73954 18.8412 11.555C18.4815 13.3705 17.5034 15.005 16.0736 16.1802C14.6439 17.3554 12.8509 17.9985 11.0001 18ZM14.0001 9H12.0001V7C12.0001 6.73478 11.8948 6.48043 11.7072 6.29289C11.5197 6.10536 11.2653 6 11.0001 6C10.7349 6 10.4805 6.10536 10.293 6.29289C10.1055 6.48043 10.0001 6.73478 10.0001 7V9H8.00011C7.73489 9 7.48054 9.10536 7.293 9.29289C7.10547 9.48043 7.00011 9.73478 7.00011 10C7.00011 10.2652 7.10547 10.5196 7.293 10.7071C7.48054 10.8946 7.73489 11 8.00011 11H10.0001V13C10.0001 13.2652 10.1055 13.5196 10.293 13.7071C10.4805 13.8946 10.7349 14 11.0001 14C11.2653 14 11.5197 13.8946 11.7072 13.7071C11.8948 13.5196 12.0001 13.2652 12.0001 13V11H14.0001C14.2653 11 14.5197 10.8946 14.7072 10.7071C14.8948 10.5196 15.0001 10.2652 15.0001 10C15.0001 9.73478 14.8948 9.48043 14.7072 9.29289C14.5197 9.10536 14.2653 9 14.0001 9Z" fill="black"/>
</svg>
