<svg width="18" height="21" viewBox="0 0 18 21" fill="none" xmlns="http://www.w3.org/2000/svg">
<path d="M11.94 3.69C12.318 3.25428 12.6063 2.74817 12.7882 2.20074C12.9701 1.6533 13.0421 1.07533 13 0.5C11.8393 0.593687 10.762 1.13956 9.99997 2.02C9.63507 2.44198 9.35855 2.93288 9.18678 3.46364C9.01501 3.99441 8.95149 4.55424 8.99997 5.11C9.56612 5.11472 10.1258 4.9891 10.6356 4.74286C11.1454 4.49662 11.5917 4.13637 11.94 3.69ZM14.46 11.13C14.4667 10.3637 14.6685 9.61182 15.0464 8.9452C15.4244 8.27859 15.9659 7.71926 16.62 7.32C16.2072 6.72524 15.6615 6.23483 15.0262 5.88767C14.3909 5.54052 13.6835 5.34615 12.96 5.32C11.4 5.16 9.95997 6.23 9.12997 6.23C8.29997 6.23 7.12997 5.34 5.82997 5.36C4.9801 5.388 4.15199 5.63578 3.42642 6.07919C2.70085 6.52259 2.10258 7.14648 1.68997 7.89C-0.0700274 10.95 1.23997 15.5 2.99997 17.97C3.79997 19.18 4.79997 20.55 6.11997 20.5C7.43997 20.45 7.86997 19.68 9.39997 19.68C10.93 19.68 11.4 20.5 12.7 20.47C14 20.44 14.92 19.23 15.76 18.02C16.355 17.1415 16.8198 16.1816 17.14 15.17C16.3475 14.832 15.6713 14.2693 15.195 13.5513C14.7187 12.8333 14.4632 11.9916 14.46 11.13Z" fill="black"/>
</svg>
