<svg width="24" height="25" viewBox="0 0 24 25" fill="none" xmlns="http://www.w3.org/2000/svg">
<path d="M3 8.23145H21C21.2652 8.23145 21.5196 8.12609 21.7071 7.93855C21.8946 7.75102 22 7.49666 22 7.23145C22 6.96623 21.8946 6.71188 21.7071 6.52434C21.5196 6.3368 21.2652 6.23145 21 6.23145H3C2.73478 6.23145 2.48043 6.3368 2.29289 6.52434C2.10536 6.71188 2 6.96623 2 7.23145C2 7.49666 2.10536 7.75102 2.29289 7.93855C2.48043 8.12609 2.73478 8.23145 3 8.23145ZM21 16.2314H3C2.73478 16.2314 2.48043 16.3368 2.29289 16.5243C2.10536 16.7119 2 16.9662 2 17.2314C2 17.4967 2.10536 17.751 2.29289 17.9386C2.48043 18.1261 2.73478 18.2314 3 18.2314H21C21.2652 18.2314 21.5196 18.1261 21.7071 17.9386C21.8946 17.751 22 17.4967 22 17.2314C22 16.9662 21.8946 16.7119 21.7071 16.5243C21.5196 16.3368 21.2652 16.2314 21 16.2314ZM21 11.2314H3C2.73478 11.2314 2.48043 11.3368 2.29289 11.5243C2.10536 11.7119 2 11.9662 2 12.2314C2 12.4967 2.10536 12.751 2.29289 12.9386C2.48043 13.1261 2.73478 13.2314 3 13.2314H21C21.2652 13.2314 21.5196 13.1261 21.7071 12.9386C21.8946 12.751 22 12.4967 22 12.2314C22 11.9662 21.8946 11.7119 21.7071 11.5243C21.5196 11.3368 21.2652 11.2314 21 11.2314Z" fill="black"/>
</svg>
