<svg width="21" height="21" viewBox="0 0 21 21" fill="none" xmlns="http://www.w3.org/2000/svg">
<path d="M6.99999 9.23193C6.80221 9.23193 6.60887 9.29058 6.44442 9.40046C6.27997 9.51035 6.1518 9.66652 6.07611 9.84925C6.00042 10.032 5.98062 10.233 6.0192 10.427C6.05779 10.621 6.15303 10.7992 6.29288 10.939C6.43273 11.0789 6.61092 11.1741 6.8049 11.2127C6.99888 11.2513 7.19995 11.2315 7.38267 11.1558C7.5654 11.0801 7.72158 10.952 7.83146 10.7875C7.94134 10.6231 7.99999 10.4297 7.99999 10.2319C7.99999 9.96672 7.89463 9.71236 7.70709 9.52483C7.51956 9.33729 7.2652 9.23193 6.99999 9.23193ZM11 9.23193C10.8022 9.23193 10.6089 9.29058 10.4444 9.40046C10.28 9.51035 10.1518 9.66652 10.0761 9.84925C10.0004 10.032 9.98062 10.233 10.0192 10.427C10.0578 10.621 10.153 10.7992 10.2929 10.939C10.4327 11.0789 10.6109 11.1741 10.8049 11.2127C10.9989 11.2513 11.1999 11.2315 11.3827 11.1558C11.5654 11.0801 11.7216 10.952 11.8315 10.7875C11.9413 10.6231 12 10.4297 12 10.2319C12 9.96672 11.8946 9.71236 11.7071 9.52483C11.5196 9.33729 11.2652 9.23193 11 9.23193ZM15 9.23193C14.8022 9.23193 14.6089 9.29058 14.4444 9.40046C14.28 9.51035 14.1518 9.66652 14.0761 9.84925C14.0004 10.032 13.9806 10.233 14.0192 10.427C14.0578 10.621 14.153 10.7992 14.2929 10.939C14.4327 11.0789 14.6109 11.1741 14.8049 11.2127C14.9989 11.2513 15.1999 11.2315 15.3827 11.1558C15.5654 11.0801 15.7216 10.952 15.8315 10.7875C15.9413 10.6231 16 10.4297 16 10.2319C16 9.96672 15.8946 9.71236 15.7071 9.52483C15.5196 9.33729 15.2652 9.23193 15 9.23193ZM11 0.231934C9.68677 0.231934 8.38641 0.490591 7.17315 0.993138C5.9599 1.49569 4.85751 2.23228 3.92892 3.16087C2.05356 5.03623 0.999988 7.57977 0.999988 10.2319C0.991246 12.5411 1.79078 14.7805 3.25999 16.5619L1.25999 18.5619C1.12123 18.7026 1.02723 18.8811 0.98986 19.0751C0.952486 19.2691 0.973409 19.4698 1.04999 19.6519C1.13305 19.8319 1.26769 19.9831 1.43683 20.0863C1.60598 20.1896 1.80199 20.2403 1.99999 20.2319H11C13.6522 20.2319 16.1957 19.1784 18.0711 17.303C19.9464 15.4276 21 12.8841 21 10.2319C21 7.57977 19.9464 5.03623 18.0711 3.16087C16.1957 1.2855 13.6522 0.231934 11 0.231934ZM11 18.2319H4.40999L5.33999 17.3019C5.43448 17.2093 5.50965 17.0989 5.56114 16.977C5.61264 16.8551 5.63944 16.7242 5.63999 16.5919C5.63623 16.3282 5.5284 16.0766 5.33999 15.8919C4.03057 14.584 3.21516 12.8625 3.03268 11.0207C2.8502 9.17898 3.31193 7.33094 4.33922 5.79146C5.3665 4.25197 6.89578 3.11629 8.6665 2.57791C10.4372 2.03952 12.3398 2.13174 14.0502 2.83885C15.7606 3.54596 17.1728 4.82421 18.0464 6.45582C18.92 8.08744 19.2009 9.97148 18.8411 11.7869C18.4814 13.6024 17.5033 15.237 16.0735 16.4122C14.6438 17.5874 12.8508 18.2305 11 18.2319Z" fill="black"/>
</svg>
