<svg width="19" height="20" viewBox="0 0 19 20" fill="none" xmlns="http://www.w3.org/2000/svg">
<path d="M9.54981 0C8.34602 0 7.15402 0.258658 6.04187 0.761205C4.92972 1.26375 3.9192 2.00035 3.06799 2.92893C1.34891 4.8043 0.383137 7.34784 0.383137 10C0.375124 12.3091 1.10803 14.5485 2.4548 16.33L0.621471 18.33C0.494276 18.4706 0.408113 18.6492 0.373853 18.8432C0.339594 19.0372 0.358773 19.2379 0.428971 19.42C0.505107 19.5999 0.628533 19.7511 0.78358 19.8544C0.938628 19.9577 1.1183 20.0083 1.2998 20H9.54981C11.981 20 14.3125 18.9464 16.0316 17.0711C17.7507 15.1957 18.7165 12.6522 18.7165 10C18.7165 7.34784 17.7507 4.8043 16.0316 2.92893C14.3125 1.05357 11.981 0 9.54981 0ZM9.54981 18H3.50897L4.36147 17.07C4.5322 16.8826 4.62803 16.6292 4.62803 16.365C4.62803 16.1008 4.5322 15.8474 4.36147 15.66C3.16117 14.352 2.41371 12.6305 2.24644 10.7888C2.07916 8.94705 2.50242 7.09901 3.4441 5.55952C4.38577 4.02004 5.78761 2.88436 7.41078 2.34597C9.03394 1.80759 10.778 1.8998 12.3458 2.60691C13.9137 3.31402 15.2083 4.59227 16.009 6.22389C16.8098 7.85551 17.0673 9.73954 16.7375 11.555C16.4077 13.3705 15.5112 15.005 14.2005 16.1802C12.8899 17.3554 11.2463 17.9985 9.54981 18Z" fill="#979797"/>
</svg>
