<svg width="21" height="25" viewBox="0 0 21 25" fill="none" xmlns="http://www.w3.org/2000/svg">
<path d="M10.99 13.7764L10.06 11.9164C9.69 11.1764 9.99 10.2764 10.73 9.90637L10.99 9.77637L16.72 15.2364C17.22 15.7064 17.5 16.3664 17.5 17.0464V22.2764C17.5 23.6564 16.38 24.7764 15 24.7764H4C3.45 24.7764 3 24.3264 3 23.7764C3 23.2264 3.45 22.7764 4 22.7764H8.5V21.7764H2.5C1.95 21.7764 1.5 21.3264 1.5 20.7764C1.5 20.2264 1.95 19.7764 2.5 19.7764H8.5V18.7764H1.5C0.95 18.7764 0.5 18.3264 0.5 17.7764C0.5 17.2264 0.95 16.7764 1.5 16.7764H8.5V15.7764H3C2.45 15.7764 2 15.3264 2 14.7764C2 14.2264 2.45 13.7764 3 13.7764H10.99ZM12.5 13.9764V15.7764H10.5V22.7764H14.5C15.05 22.7764 15.5 22.3264 15.5 21.7764V17.2464C15.5 16.9764 15.39 16.7064 15.19 16.5164L12.5 13.9764ZM10.28 7.89637C9.44 8.29637 9.11 8.51637 8.65 9.08637L5.95 6.23637C5.57 5.83637 5.59 5.20637 5.99 4.82637C6.39 4.44637 7.02 4.46637 7.4 4.86637L10.28 7.89637ZM8.14 9.98637C7.91 10.5364 7.85 11.2264 7.94 11.7764H7.08L4.81 9.38637C4.43 8.98637 4.44 8.35637 4.85 7.97637C5.25 7.59637 5.88 7.61637 6.26 8.01637L8.14 9.98637ZM18.83 14.6864L19.71 13.8564C20.21 13.3864 20.5 12.7264 20.5 12.0364V4.12637L20.23 4.02637C19.45 3.74637 18.59 4.14637 18.31 4.92637L17.6 6.88637L12.1 1.08637C11.72 0.68637 11.09 0.66637 10.69 1.04637C10.29 1.42637 10.27 2.05637 10.65 2.45637L14.44 6.44637L13.71 7.13637L8.89 2.05637C8.51 1.65637 7.88 1.63637 7.48 2.01637C7.08 2.39637 7.06 3.02637 7.44 3.42637L11.22 7.40637L13.88 9.77637L15.81 7.90637L17.19 9.35637L18.5 8.11637V11.8164C18.5 12.0964 18.39 12.3564 18.19 12.5464L17.49 13.2064L18.1 13.7864C18.39 14.0564 18.63 14.3564 18.83 14.6864Z" fill="#979797"/>
</svg>
