<svg width="24" height="24" viewBox="0 0 24 24" fill="none" xmlns="http://www.w3.org/2000/svg">
<path d="M17.3439 12.4202L11.4155 18.6102C10.6383 19.3302 9.6266 19.7135 8.58729 19.6816C7.54798 19.6497 6.55962 19.2051 5.8244 18.4386C5.08918 17.6722 4.66264 16.6419 4.63205 15.5585C4.60145 14.4751 4.96911 13.4204 5.65981 12.6102L13.3341 4.61021C13.7923 4.15651 14.4001 3.90354 15.0321 3.90354C15.664 3.90354 16.2718 4.15651 16.73 4.61021C17.1764 5.0818 17.4267 5.71768 17.4267 6.38021C17.4267 7.04274 17.1764 7.67862 16.73 8.15021L10.1109 15.0402C10.0454 15.1138 9.96664 15.1731 9.87912 15.2149C9.7916 15.2567 9.69704 15.2802 9.60084 15.2839C9.50463 15.2876 9.40867 15.2715 9.31842 15.2366C9.22818 15.2016 9.14542 15.1485 9.07488 15.0802C9.00433 15.0119 8.94738 14.9298 8.90727 14.8386C8.86716 14.7474 8.84468 14.6488 8.84112 14.5485C8.83756 14.4482 8.85298 14.3482 8.8865 14.2541C8.92003 14.16 8.971 14.0738 9.0365 14.0002L13.9576 8.88021C14.1383 8.69191 14.2398 8.43651 14.2398 8.17021C14.2398 7.90391 14.1383 7.64852 13.9576 7.46021C13.777 7.27191 13.532 7.16612 13.2766 7.16612C13.0211 7.16612 12.7761 7.27191 12.5955 7.46021L7.67432 12.6002C7.42807 12.8549 7.23263 13.1579 7.09925 13.4917C6.96588 13.8256 6.89721 14.1836 6.89721 14.5452C6.89721 14.9068 6.96588 15.2649 7.09925 15.5987C7.23263 15.9325 7.42807 16.2355 7.67432 16.4902C8.17734 16.9897 8.84542 17.2683 9.54013 17.2683C10.2348 17.2683 10.9029 16.9897 11.4059 16.4902L18.0154 9.59021C18.778 8.73716 19.1931 7.60888 19.1733 6.44308C19.1536 5.27727 18.7006 4.16496 17.9097 3.34048C17.1187 2.516 16.0517 2.04373 14.9334 2.02316C13.815 2.00259 12.7327 2.43533 11.9144 3.23021L4.24007 11.2302C3.20519 12.425 2.65247 13.9901 2.69709 15.5992C2.7417 17.2083 3.38019 18.7374 4.47954 19.868C5.57889 20.9985 7.05431 21.6433 8.59838 21.6679C10.1425 21.6925 11.6361 21.0951 12.7681 20.0002L18.7061 13.8202C18.7956 13.727 18.8665 13.6163 18.9149 13.4945C18.9633 13.3726 18.9882 13.2421 18.9882 13.1102C18.9882 12.9784 18.9633 12.8478 18.9149 12.726C18.8665 12.6041 18.7956 12.4935 18.7061 12.4002C18.6167 12.307 18.5105 12.233 18.3936 12.1826C18.2768 12.1321 18.1515 12.1061 18.025 12.1061C17.8985 12.1061 17.7733 12.1321 17.6564 12.1826C17.5396 12.233 17.4334 12.307 17.3439 12.4002V12.4202Z" fill="black"/>
</svg>
