<svg width="24" height="25" viewBox="0 0 24 25" fill="none" xmlns="http://www.w3.org/2000/svg">
<path d="M13.8855 21.4629H6.453C5.21175 21.4629 4.203 20.4534 4.203 19.2129V5.71289C4.203 4.47239 5.21175 3.46289 6.453 3.46289H16.953C18.1935 3.46289 19.203 4.47239 19.203 5.71289V16.4379C19.203 16.6381 19.284 16.8181 19.4115 16.9524C19.4809 17.0265 19.5648 17.0857 19.6579 17.1262C19.751 17.1667 19.8514 17.1877 19.953 17.1879C20.1519 17.1879 20.3427 17.1089 20.4833 16.9682C20.624 16.8276 20.703 16.6368 20.703 16.4379V5.71289C20.703 3.64514 19.02 1.96289 16.953 1.96289H6.453C4.38525 1.96289 2.703 3.64514 2.703 5.71289V19.2129C2.703 21.2806 4.38525 22.9629 6.453 22.9629H13.8855C14.0844 22.9629 14.2752 22.8839 14.4158 22.7432C14.5565 22.6026 14.6355 22.4118 14.6355 22.2129C14.6347 22.0205 14.5594 21.8358 14.4255 21.6976C14.3562 21.6238 14.2726 21.5649 14.1797 21.5246C14.0869 21.4842 13.9867 21.4632 13.8855 21.4629Z" fill="black"/>
<path d="M16.203 11.7129H7.203C7.00409 11.7129 6.81333 11.7919 6.67267 11.9326C6.53202 12.0732 6.453 12.264 6.453 12.4629C6.453 12.6618 6.53202 12.8526 6.67267 12.9932C6.81333 13.1339 7.00409 13.2129 7.203 13.2129H16.203C16.4019 13.2129 16.5927 13.1339 16.7333 12.9932C16.874 12.8526 16.953 12.6618 16.953 12.4629C16.953 12.264 16.874 12.0732 16.7333 11.9326C16.5927 11.7919 16.4019 11.7129 16.203 11.7129ZM16.203 7.96289H7.203C7.00409 7.96289 6.81333 8.04191 6.67267 8.18256C6.53202 8.32321 6.453 8.51398 6.453 8.71289C6.453 8.9118 6.53202 9.10257 6.67267 9.24322C6.81333 9.38387 7.00409 9.46289 7.203 9.46289H16.203C16.4019 9.46289 16.5927 9.38387 16.7333 9.24322C16.874 9.10257 16.953 8.9118 16.953 8.71289C16.953 8.51398 16.874 8.32321 16.7333 8.18256C16.5927 8.04191 16.4019 7.96289 16.203 7.96289ZM16.203 15.4629H7.203C7.00409 15.4629 6.81333 15.5419 6.67267 15.6826C6.53202 15.8232 6.453 16.014 6.453 16.2129C6.453 16.4118 6.53202 16.6026 6.67267 16.7432C6.81333 16.8839 7.00409 16.9629 7.203 16.9629H16.203C16.4019 16.9629 16.5927 16.8839 16.7333 16.7432C16.874 16.6026 16.953 16.4118 16.953 16.2129C16.953 16.014 16.874 15.8232 16.7333 15.6826C16.5927 15.5419 16.4019 15.4629 16.203 15.4629ZM15.8273 19.9989C15.7537 20.0731 15.6967 20.1621 15.66 20.26C15.6232 20.3578 15.6077 20.4623 15.6143 20.5666C15.6212 20.7517 15.6972 20.9275 15.8273 21.0594L17.3468 22.5781C17.4162 22.648 17.4989 22.7035 17.5899 22.7413C17.6809 22.7792 17.7784 22.7987 17.877 22.7987C17.9756 22.7987 18.0731 22.7792 18.1641 22.7413C18.2551 22.7035 18.3378 22.648 18.4073 22.5781L21.0773 19.9081C21.1489 19.839 21.206 19.7562 21.2453 19.6647C21.2846 19.5732 21.3053 19.4748 21.3062 19.3752C21.3071 19.2756 21.2881 19.1768 21.2504 19.0847C21.2127 18.9925 21.157 18.9088 21.0865 18.8383C21.0161 18.7679 20.9324 18.7122 20.8402 18.6745C20.748 18.6368 20.6493 18.6178 20.5497 18.6187C20.4501 18.6196 20.3517 18.6403 20.2602 18.6796C20.1687 18.7189 20.0859 18.776 20.0168 18.8476L17.877 20.9874L16.887 19.9989C16.7629 19.8784 16.6005 19.8054 16.428 19.7926C16.3188 19.7801 16.2082 19.7921 16.1043 19.8278C16.0003 19.8634 15.9057 19.9219 15.8273 19.9989Z" fill="black"/>
</svg>
