<svg width="25" height="24" viewBox="0 0 25 24" fill="none" xmlns="http://www.w3.org/2000/svg">
<g clip-path="url(#clip0_4106_2891)">
<path d="M12.3832 13C17.3532 13 21.3832 8.97 21.3832 4C16.4132 4 12.3832 8.03 12.3832 13ZM14.8232 10.56C15.5332 8.66 17.0432 7.14 18.9432 6.44C18.2332 8.34 16.7232 9.85 14.8232 10.56ZM3.38318 4C3.38318 8.97 7.41318 13 12.3832 13C12.3832 8.03 8.35318 4 3.38318 4ZM5.82318 6.44C7.72318 7.15 9.24318 8.66 9.94318 10.56C8.04318 9.85 6.53318 8.34 5.82318 6.44Z" fill="#979797"/>
<rect x="11.3832" y="12" width="2" height="9" fill="#979797"/>
</g>
<defs>
<clipPath id="clip0_4106_2891">
<rect width="24" height="24" fill="white" transform="translate(0.383179)"/>
</clipPath>
</defs>
</svg>
