<svg width="218" height="117" viewBox="0 0 218 117" fill="none" xmlns="http://www.w3.org/2000/svg">
<path d="M95.8265 35.75C95.1837 35.75 94.5553 35.9406 94.0209 36.2977C93.4864 36.6548 93.0698 37.1624 92.8239 37.7563C92.5779 38.3501 92.5135 39.0036 92.6389 39.634C92.7643 40.2645 93.0739 40.8436 93.5284 41.2981C93.9829 41.7526 94.562 42.0621 95.1924 42.1876C95.8229 42.313 96.4763 42.2486 97.0702 42.0026C97.6641 41.7566 98.1716 41.3401 98.5287 40.8056C98.8859 40.2711 99.0765 39.6428 99.0765 39C99.0765 38.138 98.7341 37.3114 98.1246 36.7019C97.5151 36.0924 96.6884 35.75 95.8265 35.75ZM108.826 35.75C108.184 35.75 107.555 35.9406 107.021 36.2977C106.486 36.6548 106.07 37.1624 105.824 37.7563C105.578 38.3501 105.514 39.0036 105.639 39.634C105.764 40.2645 106.074 40.8436 106.528 41.2981C106.983 41.7526 107.562 42.0621 108.192 42.1876C108.823 42.313 109.476 42.2486 110.07 42.0026C110.664 41.7566 111.172 41.3401 111.529 40.8056C111.886 40.2711 112.076 39.6428 112.076 39C112.076 38.138 111.734 37.3114 111.125 36.7019C110.515 36.0924 109.688 35.75 108.826 35.75ZM121.826 35.75C121.184 35.75 120.555 35.9406 120.021 36.2977C119.486 36.6548 119.07 37.1624 118.824 37.7563C118.578 38.3501 118.514 39.0036 118.639 39.634C118.764 40.2645 119.074 40.8436 119.528 41.2981C119.983 41.7526 120.562 42.0621 121.192 42.1876C121.823 42.313 122.476 42.2486 123.07 42.0026C123.664 41.7566 124.172 41.3401 124.529 40.8056C124.886 40.2711 125.076 39.6428 125.076 39C125.076 38.138 124.734 37.3114 124.125 36.7019C123.515 36.0924 122.688 35.75 121.826 35.75ZM108.826 6.5C104.559 6.5 100.332 7.34064 96.3893 8.97392C92.4462 10.6072 88.8634 13.0011 85.8455 16.019C79.7506 22.114 76.3265 30.3805 76.3265 39C76.2981 46.5047 78.8965 53.7827 83.6715 59.5725L77.1715 66.0725C76.7205 66.5295 76.415 67.1099 76.2936 67.7404C76.1721 68.3708 76.2401 69.0231 76.489 69.615C76.7589 70.1998 77.1965 70.6911 77.7462 71.0268C78.2959 71.3624 78.933 71.5271 79.5765 71.5H108.826C117.446 71.5 125.713 68.0759 131.807 61.981C137.902 55.886 141.326 47.6195 141.326 39C141.326 30.3805 137.902 22.114 131.807 16.019C125.713 9.9241 117.446 6.5 108.826 6.5ZM108.826 65H87.409L90.4315 61.9775C90.7386 61.6765 90.9829 61.3176 91.1502 60.9215C91.3176 60.5254 91.4047 60.1 91.4065 59.67C91.3943 58.8128 91.0438 57.995 90.4315 57.395C86.1759 53.1441 83.5258 47.5492 82.9327 41.5636C82.3396 35.5779 83.8403 29.5718 87.179 24.5684C90.5176 19.5651 95.4878 15.8742 101.243 14.1244C106.997 12.3747 113.181 12.6744 118.74 14.9725C124.298 17.2706 128.888 21.4249 131.727 26.7276C134.567 32.0304 135.479 38.1535 134.31 44.0538C133.141 49.954 129.962 55.2664 125.315 59.0858C120.669 62.9052 114.841 64.9953 108.826 65Z" fill="#CBCBCB"/>
<path d="M46.9751 110.125C46.9751 109.859 46.9334 109.625 46.8501 109.422C46.772 109.214 46.6314 109.026 46.4282 108.859C46.2303 108.693 45.9543 108.534 45.6001 108.383C45.2511 108.232 44.8084 108.078 44.272 107.922C43.7095 107.755 43.2017 107.57 42.7485 107.367C42.2954 107.159 41.9074 106.922 41.5845 106.656C41.2616 106.391 41.0142 106.086 40.8423 105.742C40.6704 105.398 40.5845 105.005 40.5845 104.562C40.5845 104.12 40.6756 103.711 40.8579 103.336C41.0402 102.961 41.3006 102.635 41.6392 102.359C41.9829 102.078 42.3918 101.859 42.8657 101.703C43.3397 101.547 43.8683 101.469 44.4517 101.469C45.3058 101.469 46.0298 101.633 46.6235 101.961C47.2225 102.284 47.6782 102.708 47.9907 103.234C48.3032 103.755 48.4595 104.312 48.4595 104.906H46.9595C46.9595 104.479 46.8683 104.102 46.686 103.773C46.5038 103.44 46.2277 103.18 45.8579 102.992C45.4881 102.799 45.0194 102.703 44.4517 102.703C43.9152 102.703 43.4725 102.784 43.1235 102.945C42.7746 103.107 42.5142 103.326 42.3423 103.602C42.1756 103.878 42.0923 104.193 42.0923 104.547C42.0923 104.786 42.1418 105.005 42.2407 105.203C42.3449 105.396 42.5038 105.576 42.7173 105.742C42.936 105.909 43.2121 106.062 43.5454 106.203C43.884 106.344 44.2876 106.479 44.7564 106.609C45.4022 106.792 45.9595 106.995 46.4282 107.219C46.897 107.443 47.2824 107.695 47.5845 107.977C47.8918 108.253 48.1183 108.568 48.2642 108.922C48.4152 109.271 48.4907 109.667 48.4907 110.109C48.4907 110.573 48.397 110.992 48.2095 111.367C48.022 111.742 47.7538 112.062 47.4048 112.328C47.0558 112.594 46.6366 112.799 46.147 112.945C45.6626 113.086 45.1209 113.156 44.522 113.156C43.9959 113.156 43.4777 113.083 42.9673 112.938C42.4621 112.792 42.0011 112.573 41.5845 112.281C41.173 111.99 40.8423 111.63 40.5923 111.203C40.3475 110.771 40.2251 110.271 40.2251 109.703H41.7251C41.7251 110.094 41.8006 110.43 41.9517 110.711C42.1027 110.987 42.3084 111.216 42.5689 111.398C42.8345 111.581 43.134 111.716 43.4673 111.805C43.8058 111.888 44.1574 111.93 44.522 111.93C45.048 111.93 45.4933 111.857 45.8579 111.711C46.2225 111.565 46.4985 111.357 46.686 111.086C46.8788 110.815 46.9751 110.495 46.9751 110.125ZM53.7329 104.547V105.656H49.1626V104.547H53.7329ZM50.7095 102.492H52.1548V110.906C52.1548 111.193 52.1991 111.409 52.2876 111.555C52.3761 111.701 52.4907 111.797 52.6314 111.844C52.772 111.891 52.923 111.914 53.0845 111.914C53.2043 111.914 53.3293 111.904 53.4595 111.883C53.5949 111.857 53.6965 111.836 53.7642 111.82L53.772 113C53.6574 113.036 53.5064 113.07 53.3189 113.102C53.1366 113.138 52.9152 113.156 52.6548 113.156C52.3006 113.156 51.9751 113.086 51.6782 112.945C51.3814 112.805 51.1444 112.57 50.9673 112.242C50.7954 111.909 50.7095 111.461 50.7095 110.898V102.492ZM60.4126 111.555V107.203C60.4126 106.87 60.3449 106.581 60.2095 106.336C60.0793 106.086 59.8814 105.893 59.6157 105.758C59.3501 105.622 59.022 105.555 58.6314 105.555C58.2668 105.555 57.9465 105.617 57.6704 105.742C57.3996 105.867 57.186 106.031 57.0298 106.234C56.8788 106.438 56.8032 106.656 56.8032 106.891H55.3579C55.3579 106.589 55.436 106.289 55.5923 105.992C55.7485 105.695 55.9725 105.427 56.2642 105.188C56.561 104.943 56.9152 104.75 57.3267 104.609C57.7433 104.464 58.2069 104.391 58.7173 104.391C59.3319 104.391 59.8735 104.495 60.3423 104.703C60.8163 104.911 61.186 105.227 61.4517 105.648C61.7225 106.065 61.8579 106.589 61.8579 107.219V111.156C61.8579 111.438 61.8814 111.737 61.9282 112.055C61.9803 112.372 62.0558 112.646 62.1548 112.875V113H60.647C60.5741 112.833 60.5168 112.612 60.4751 112.336C60.4334 112.055 60.4126 111.794 60.4126 111.555ZM60.6626 107.875L60.6782 108.891H59.2173C58.8058 108.891 58.4386 108.924 58.1157 108.992C57.7928 109.055 57.522 109.151 57.3032 109.281C57.0845 109.411 56.9178 109.576 56.8032 109.773C56.6886 109.966 56.6314 110.193 56.6314 110.453C56.6314 110.719 56.6913 110.961 56.811 111.18C56.9308 111.398 57.1105 111.573 57.3501 111.703C57.5949 111.828 57.8944 111.891 58.2485 111.891C58.6913 111.891 59.0819 111.797 59.4204 111.609C59.759 111.422 60.0272 111.193 60.2251 110.922C60.4282 110.651 60.5376 110.388 60.5532 110.133L61.1704 110.828C61.134 111.047 61.035 111.289 60.8735 111.555C60.7121 111.82 60.4959 112.076 60.2251 112.32C59.9595 112.56 59.6418 112.76 59.272 112.922C58.9074 113.078 58.4959 113.156 58.0376 113.156C57.4647 113.156 56.9621 113.044 56.5298 112.82C56.1027 112.596 55.7694 112.297 55.5298 111.922C55.2954 111.542 55.1782 111.117 55.1782 110.648C55.1782 110.195 55.2668 109.797 55.4439 109.453C55.6209 109.104 55.8761 108.815 56.2095 108.586C56.5428 108.352 56.9439 108.174 57.4126 108.055C57.8814 107.935 58.4048 107.875 58.9829 107.875H60.6626ZM65.5767 105.875V113H64.1314V104.547H65.5376L65.5767 105.875ZM68.2173 104.5L68.2095 105.844C68.0897 105.818 67.9751 105.802 67.8657 105.797C67.7616 105.786 67.6418 105.781 67.5064 105.781C67.173 105.781 66.8788 105.833 66.6235 105.938C66.3683 106.042 66.1522 106.188 65.9751 106.375C65.798 106.562 65.6574 106.786 65.5532 107.047C65.4543 107.302 65.3892 107.583 65.3579 107.891L64.9517 108.125C64.9517 107.615 65.0011 107.135 65.1001 106.688C65.2043 106.24 65.3631 105.844 65.5767 105.5C65.7902 105.151 66.061 104.88 66.3892 104.688C66.7225 104.49 67.1183 104.391 67.5767 104.391C67.6808 104.391 67.8006 104.404 67.936 104.43C68.0715 104.451 68.1652 104.474 68.2173 104.5ZM73.4829 104.547V105.656H68.9126V104.547H73.4829ZM70.4595 102.492H71.9048V110.906C71.9048 111.193 71.9491 111.409 72.0376 111.555C72.1261 111.701 72.2407 111.797 72.3814 111.844C72.522 111.891 72.673 111.914 72.8345 111.914C72.9543 111.914 73.0793 111.904 73.2095 111.883C73.3449 111.857 73.4465 111.836 73.5142 111.82L73.522 113C73.4074 113.036 73.2564 113.07 73.0689 113.102C72.8866 113.138 72.6652 113.156 72.4048 113.156C72.0506 113.156 71.7251 113.086 71.4282 112.945C71.1314 112.805 70.8944 112.57 70.7173 112.242C70.5454 111.909 70.4595 111.461 70.4595 110.898V102.492ZM81.522 112.125L83.8735 104.547H85.4204L82.0298 114.305C81.9517 114.513 81.8475 114.737 81.7173 114.977C81.5923 115.221 81.4308 115.453 81.2329 115.672C81.035 115.891 80.7954 116.068 80.5142 116.203C80.2381 116.344 79.9074 116.414 79.522 116.414C79.4074 116.414 79.2616 116.398 79.0845 116.367C78.9074 116.336 78.7824 116.31 78.7095 116.289L78.7017 115.117C78.7433 115.122 78.8084 115.128 78.897 115.133C78.9907 115.143 79.0558 115.148 79.0923 115.148C79.4204 115.148 79.6991 115.104 79.9282 115.016C80.1574 114.932 80.3501 114.789 80.5064 114.586C80.6678 114.388 80.8058 114.115 80.9204 113.766L81.522 112.125ZM79.7954 104.547L81.9907 111.109L82.3657 112.633L81.3267 113.164L78.2173 104.547H79.7954ZM86.2173 108.867V108.688C86.2173 108.078 86.3058 107.513 86.4829 106.992C86.66 106.466 86.9152 106.01 87.2485 105.625C87.5819 105.234 87.9855 104.932 88.4595 104.719C88.9334 104.5 89.4647 104.391 90.0532 104.391C90.647 104.391 91.1808 104.5 91.6548 104.719C92.134 104.932 92.5402 105.234 92.8735 105.625C93.2121 106.01 93.4699 106.466 93.647 106.992C93.8241 107.513 93.9126 108.078 93.9126 108.688V108.867C93.9126 109.477 93.8241 110.042 93.647 110.562C93.4699 111.083 93.2121 111.539 92.8735 111.93C92.5402 112.315 92.1366 112.617 91.6626 112.836C91.1939 113.049 90.6626 113.156 90.0689 113.156C89.4751 113.156 88.9413 113.049 88.4673 112.836C87.9933 112.617 87.5871 112.315 87.2485 111.93C86.9152 111.539 86.66 111.083 86.4829 110.562C86.3058 110.042 86.2173 109.477 86.2173 108.867ZM87.6626 108.688V108.867C87.6626 109.289 87.7121 109.688 87.811 110.062C87.91 110.432 88.0584 110.76 88.2564 111.047C88.4595 111.333 88.7121 111.56 89.0142 111.727C89.3163 111.888 89.6678 111.969 90.0689 111.969C90.4647 111.969 90.811 111.888 91.1079 111.727C91.41 111.56 91.66 111.333 91.8579 111.047C92.0558 110.76 92.2043 110.432 92.3032 110.062C92.4074 109.688 92.4595 109.289 92.4595 108.867V108.688C92.4595 108.271 92.4074 107.878 92.3032 107.508C92.2043 107.133 92.0532 106.802 91.8501 106.516C91.6522 106.224 91.4022 105.995 91.1001 105.828C90.8032 105.661 90.4543 105.578 90.0532 105.578C89.6574 105.578 89.3084 105.661 89.0064 105.828C88.7095 105.995 88.4595 106.224 88.2564 106.516C88.0584 106.802 87.91 107.133 87.811 107.508C87.7121 107.878 87.6626 108.271 87.6626 108.688ZM100.897 111.047V104.547H102.35V113H100.967L100.897 111.047ZM101.17 109.266L101.772 109.25C101.772 109.812 101.712 110.333 101.592 110.812C101.478 111.286 101.29 111.698 101.03 112.047C100.769 112.396 100.428 112.669 100.006 112.867C99.5845 113.06 99.0715 113.156 98.4673 113.156C98.0558 113.156 97.6782 113.096 97.3345 112.977C96.9959 112.857 96.7043 112.672 96.4595 112.422C96.2147 112.172 96.0246 111.846 95.8892 111.445C95.759 111.044 95.6939 110.562 95.6939 110V104.547H97.1392V110.016C97.1392 110.396 97.1808 110.711 97.2642 110.961C97.3527 111.206 97.4699 111.401 97.6157 111.547C97.7668 111.688 97.9334 111.786 98.1157 111.844C98.3032 111.901 98.4959 111.93 98.6939 111.93C99.3084 111.93 99.7954 111.812 100.155 111.578C100.514 111.339 100.772 111.018 100.928 110.617C101.09 110.211 101.17 109.76 101.17 109.266ZM105.999 105.875V113H104.553V104.547H105.959L105.999 105.875ZM108.639 104.5L108.631 105.844C108.512 105.818 108.397 105.802 108.288 105.797C108.183 105.786 108.064 105.781 107.928 105.781C107.595 105.781 107.301 105.833 107.045 105.938C106.79 106.042 106.574 106.188 106.397 106.375C106.22 106.562 106.079 106.786 105.975 107.047C105.876 107.302 105.811 107.583 105.78 107.891L105.374 108.125C105.374 107.615 105.423 107.135 105.522 106.688C105.626 106.24 105.785 105.844 105.999 105.5C106.212 105.151 106.483 104.88 106.811 104.688C107.144 104.49 107.54 104.391 107.999 104.391C108.103 104.391 108.223 104.404 108.358 104.43C108.493 104.451 108.587 104.474 108.639 104.5ZM115.381 106.227V113H113.928V104.547H115.303L115.381 106.227ZM115.084 108.453L114.413 108.43C114.418 107.852 114.493 107.318 114.639 106.828C114.785 106.333 115.001 105.904 115.288 105.539C115.574 105.174 115.931 104.893 116.358 104.695C116.785 104.492 117.28 104.391 117.842 104.391C118.238 104.391 118.603 104.448 118.936 104.562C119.269 104.672 119.558 104.846 119.803 105.086C120.048 105.326 120.238 105.633 120.374 106.008C120.509 106.383 120.577 106.836 120.577 107.367V113H119.131V107.438C119.131 106.995 119.056 106.641 118.905 106.375C118.759 106.109 118.551 105.917 118.28 105.797C118.009 105.672 117.691 105.609 117.327 105.609C116.9 105.609 116.543 105.685 116.256 105.836C115.97 105.987 115.741 106.195 115.569 106.461C115.397 106.727 115.272 107.031 115.194 107.375C115.121 107.714 115.084 108.073 115.084 108.453ZM120.561 107.656L119.592 107.953C119.598 107.49 119.673 107.044 119.819 106.617C119.97 106.19 120.186 105.81 120.467 105.477C120.754 105.143 121.105 104.88 121.522 104.688C121.939 104.49 122.415 104.391 122.952 104.391C123.405 104.391 123.806 104.451 124.155 104.57C124.509 104.69 124.806 104.875 125.045 105.125C125.29 105.37 125.475 105.685 125.6 106.07C125.725 106.456 125.788 106.914 125.788 107.445V113H124.334V107.43C124.334 106.956 124.259 106.589 124.108 106.328C123.962 106.062 123.754 105.878 123.483 105.773C123.217 105.664 122.9 105.609 122.53 105.609C122.212 105.609 121.931 105.664 121.686 105.773C121.441 105.883 121.236 106.034 121.069 106.227C120.902 106.414 120.775 106.63 120.686 106.875C120.603 107.12 120.561 107.38 120.561 107.656ZM131.483 113.156C130.894 113.156 130.361 113.057 129.881 112.859C129.407 112.656 128.999 112.372 128.655 112.008C128.316 111.643 128.056 111.211 127.874 110.711C127.691 110.211 127.6 109.664 127.6 109.07V108.742C127.6 108.055 127.702 107.443 127.905 106.906C128.108 106.365 128.384 105.906 128.733 105.531C129.082 105.156 129.478 104.872 129.92 104.68C130.363 104.487 130.821 104.391 131.295 104.391C131.9 104.391 132.42 104.495 132.858 104.703C133.301 104.911 133.663 105.203 133.944 105.578C134.225 105.948 134.433 106.385 134.569 106.891C134.704 107.391 134.772 107.938 134.772 108.531V109.18H128.459V108H133.327V107.891C133.306 107.516 133.228 107.151 133.092 106.797C132.962 106.443 132.754 106.151 132.467 105.922C132.181 105.693 131.79 105.578 131.295 105.578C130.967 105.578 130.665 105.648 130.389 105.789C130.113 105.924 129.876 106.128 129.678 106.398C129.48 106.669 129.327 107 129.217 107.391C129.108 107.781 129.053 108.232 129.053 108.742V109.07C129.053 109.471 129.108 109.849 129.217 110.203C129.332 110.552 129.496 110.859 129.709 111.125C129.928 111.391 130.191 111.599 130.499 111.75C130.811 111.901 131.165 111.977 131.561 111.977C132.071 111.977 132.504 111.872 132.858 111.664C133.212 111.456 133.522 111.177 133.788 110.828L134.663 111.523C134.48 111.799 134.249 112.062 133.967 112.312C133.686 112.562 133.34 112.766 132.928 112.922C132.522 113.078 132.04 113.156 131.483 113.156ZM141.381 110.758C141.381 110.549 141.334 110.357 141.241 110.18C141.152 109.997 140.967 109.833 140.686 109.688C140.41 109.536 139.993 109.406 139.436 109.297C138.967 109.198 138.543 109.081 138.163 108.945C137.788 108.81 137.467 108.646 137.202 108.453C136.941 108.26 136.741 108.034 136.6 107.773C136.459 107.513 136.389 107.208 136.389 106.859C136.389 106.526 136.462 106.211 136.608 105.914C136.759 105.617 136.97 105.354 137.241 105.125C137.517 104.896 137.847 104.716 138.233 104.586C138.618 104.456 139.048 104.391 139.522 104.391C140.199 104.391 140.777 104.51 141.256 104.75C141.736 104.99 142.103 105.31 142.358 105.711C142.613 106.107 142.741 106.547 142.741 107.031H141.295C141.295 106.797 141.225 106.57 141.084 106.352C140.949 106.128 140.749 105.943 140.483 105.797C140.222 105.651 139.902 105.578 139.522 105.578C139.121 105.578 138.795 105.641 138.545 105.766C138.301 105.885 138.121 106.039 138.006 106.227C137.897 106.414 137.842 106.612 137.842 106.82C137.842 106.977 137.868 107.117 137.92 107.242C137.978 107.362 138.077 107.474 138.217 107.578C138.358 107.677 138.556 107.771 138.811 107.859C139.066 107.948 139.392 108.036 139.788 108.125C140.48 108.281 141.051 108.469 141.499 108.688C141.946 108.906 142.28 109.174 142.499 109.492C142.717 109.81 142.827 110.195 142.827 110.648C142.827 111.018 142.749 111.357 142.592 111.664C142.441 111.971 142.22 112.237 141.928 112.461C141.642 112.68 141.298 112.852 140.897 112.977C140.501 113.096 140.056 113.156 139.561 113.156C138.816 113.156 138.186 113.023 137.67 112.758C137.155 112.492 136.764 112.148 136.499 111.727C136.233 111.305 136.1 110.859 136.1 110.391H137.553C137.574 110.786 137.689 111.102 137.897 111.336C138.105 111.565 138.361 111.729 138.663 111.828C138.965 111.922 139.264 111.969 139.561 111.969C139.957 111.969 140.288 111.917 140.553 111.812C140.824 111.708 141.03 111.565 141.17 111.383C141.311 111.201 141.381 110.992 141.381 110.758ZM149.647 110.758C149.647 110.549 149.6 110.357 149.506 110.18C149.418 109.997 149.233 109.833 148.952 109.688C148.676 109.536 148.259 109.406 147.702 109.297C147.233 109.198 146.808 109.081 146.428 108.945C146.053 108.81 145.733 108.646 145.467 108.453C145.207 108.26 145.006 108.034 144.866 107.773C144.725 107.513 144.655 107.208 144.655 106.859C144.655 106.526 144.728 106.211 144.874 105.914C145.025 105.617 145.236 105.354 145.506 105.125C145.782 104.896 146.113 104.716 146.499 104.586C146.884 104.456 147.314 104.391 147.788 104.391C148.465 104.391 149.043 104.51 149.522 104.75C150.001 104.99 150.368 105.31 150.624 105.711C150.879 106.107 151.006 106.547 151.006 107.031H149.561C149.561 106.797 149.491 106.57 149.35 106.352C149.215 106.128 149.014 105.943 148.749 105.797C148.488 105.651 148.168 105.578 147.788 105.578C147.387 105.578 147.061 105.641 146.811 105.766C146.566 105.885 146.387 106.039 146.272 106.227C146.163 106.414 146.108 106.612 146.108 106.82C146.108 106.977 146.134 107.117 146.186 107.242C146.243 107.362 146.342 107.474 146.483 107.578C146.624 107.677 146.821 107.771 147.077 107.859C147.332 107.948 147.657 108.036 148.053 108.125C148.746 108.281 149.316 108.469 149.764 108.688C150.212 108.906 150.545 109.174 150.764 109.492C150.983 109.81 151.092 110.195 151.092 110.648C151.092 111.018 151.014 111.357 150.858 111.664C150.707 111.971 150.486 112.237 150.194 112.461C149.907 112.68 149.564 112.852 149.163 112.977C148.767 113.096 148.321 113.156 147.827 113.156C147.082 113.156 146.452 113.023 145.936 112.758C145.42 112.492 145.03 112.148 144.764 111.727C144.499 111.305 144.366 110.859 144.366 110.391H145.819C145.84 110.786 145.954 111.102 146.163 111.336C146.371 111.565 146.626 111.729 146.928 111.828C147.23 111.922 147.53 111.969 147.827 111.969C148.222 111.969 148.553 111.917 148.819 111.812C149.09 111.708 149.295 111.565 149.436 111.383C149.577 111.201 149.647 110.992 149.647 110.758ZM157.975 111.555V107.203C157.975 106.87 157.907 106.581 157.772 106.336C157.642 106.086 157.444 105.893 157.178 105.758C156.913 105.622 156.584 105.555 156.194 105.555C155.829 105.555 155.509 105.617 155.233 105.742C154.962 105.867 154.749 106.031 154.592 106.234C154.441 106.438 154.366 106.656 154.366 106.891H152.92C152.92 106.589 152.999 106.289 153.155 105.992C153.311 105.695 153.535 105.427 153.827 105.188C154.124 104.943 154.478 104.75 154.889 104.609C155.306 104.464 155.769 104.391 156.28 104.391C156.894 104.391 157.436 104.495 157.905 104.703C158.379 104.911 158.749 105.227 159.014 105.648C159.285 106.065 159.42 106.589 159.42 107.219V111.156C159.42 111.438 159.444 111.737 159.491 112.055C159.543 112.372 159.618 112.646 159.717 112.875V113H158.209C158.137 112.833 158.079 112.612 158.038 112.336C157.996 112.055 157.975 111.794 157.975 111.555ZM158.225 107.875L158.241 108.891H156.78C156.368 108.891 156.001 108.924 155.678 108.992C155.355 109.055 155.084 109.151 154.866 109.281C154.647 109.411 154.48 109.576 154.366 109.773C154.251 109.966 154.194 110.193 154.194 110.453C154.194 110.719 154.254 110.961 154.374 111.18C154.493 111.398 154.673 111.573 154.913 111.703C155.157 111.828 155.457 111.891 155.811 111.891C156.254 111.891 156.644 111.797 156.983 111.609C157.321 111.422 157.59 111.193 157.788 110.922C157.991 110.651 158.1 110.388 158.116 110.133L158.733 110.828C158.696 111.047 158.597 111.289 158.436 111.555C158.275 111.82 158.058 112.076 157.788 112.32C157.522 112.56 157.204 112.76 156.834 112.922C156.47 113.078 156.058 113.156 155.6 113.156C155.027 113.156 154.525 113.044 154.092 112.82C153.665 112.596 153.332 112.297 153.092 111.922C152.858 111.542 152.741 111.117 152.741 110.648C152.741 110.195 152.829 109.797 153.006 109.453C153.183 109.104 153.439 108.815 153.772 108.586C154.105 108.352 154.506 108.174 154.975 108.055C155.444 107.935 155.967 107.875 156.545 107.875H158.225ZM167.17 104.547H168.483V112.82C168.483 113.565 168.332 114.201 168.03 114.727C167.728 115.253 167.306 115.651 166.764 115.922C166.228 116.198 165.608 116.336 164.905 116.336C164.613 116.336 164.269 116.289 163.874 116.195C163.483 116.107 163.097 115.953 162.717 115.734C162.342 115.521 162.027 115.232 161.772 114.867L162.53 114.008C162.884 114.435 163.254 114.732 163.639 114.898C164.03 115.065 164.415 115.148 164.795 115.148C165.254 115.148 165.65 115.062 165.983 114.891C166.316 114.719 166.574 114.464 166.756 114.125C166.944 113.792 167.038 113.38 167.038 112.891V106.406L167.17 104.547ZM161.35 108.867V108.703C161.35 108.057 161.426 107.471 161.577 106.945C161.733 106.414 161.954 105.958 162.241 105.578C162.532 105.198 162.884 104.906 163.295 104.703C163.707 104.495 164.17 104.391 164.686 104.391C165.217 104.391 165.681 104.484 166.077 104.672C166.478 104.854 166.816 105.122 167.092 105.477C167.374 105.826 167.595 106.247 167.756 106.742C167.918 107.237 168.03 107.797 168.092 108.422V109.141C168.035 109.76 167.923 110.318 167.756 110.812C167.595 111.307 167.374 111.729 167.092 112.078C166.816 112.427 166.478 112.695 166.077 112.883C165.676 113.065 165.207 113.156 164.67 113.156C164.165 113.156 163.707 113.049 163.295 112.836C162.889 112.622 162.54 112.323 162.249 111.938C161.957 111.552 161.733 111.099 161.577 110.578C161.426 110.052 161.35 109.482 161.35 108.867ZM162.795 108.703V108.867C162.795 109.289 162.837 109.685 162.92 110.055C163.009 110.424 163.142 110.75 163.319 111.031C163.501 111.312 163.733 111.534 164.014 111.695C164.295 111.852 164.631 111.93 165.022 111.93C165.501 111.93 165.897 111.828 166.209 111.625C166.522 111.422 166.769 111.154 166.952 110.82C167.139 110.487 167.285 110.125 167.389 109.734V107.852C167.332 107.565 167.243 107.289 167.124 107.023C167.009 106.753 166.858 106.513 166.67 106.305C166.488 106.091 166.262 105.922 165.991 105.797C165.72 105.672 165.402 105.609 165.038 105.609C164.642 105.609 164.301 105.693 164.014 105.859C163.733 106.021 163.501 106.245 163.319 106.531C163.142 106.812 163.009 107.141 162.92 107.516C162.837 107.885 162.795 108.281 162.795 108.703ZM174.186 113.156C173.597 113.156 173.064 113.057 172.584 112.859C172.111 112.656 171.702 112.372 171.358 112.008C171.019 111.643 170.759 111.211 170.577 110.711C170.394 110.211 170.303 109.664 170.303 109.07V108.742C170.303 108.055 170.405 107.443 170.608 106.906C170.811 106.365 171.087 105.906 171.436 105.531C171.785 105.156 172.181 104.872 172.624 104.68C173.066 104.487 173.525 104.391 173.999 104.391C174.603 104.391 175.124 104.495 175.561 104.703C176.004 104.911 176.366 105.203 176.647 105.578C176.928 105.948 177.137 106.385 177.272 106.891C177.407 107.391 177.475 107.938 177.475 108.531V109.18H171.163V108H176.03V107.891C176.009 107.516 175.931 107.151 175.795 106.797C175.665 106.443 175.457 106.151 175.17 105.922C174.884 105.693 174.493 105.578 173.999 105.578C173.67 105.578 173.368 105.648 173.092 105.789C172.816 105.924 172.579 106.128 172.381 106.398C172.183 106.669 172.03 107 171.92 107.391C171.811 107.781 171.756 108.232 171.756 108.742V109.07C171.756 109.471 171.811 109.849 171.92 110.203C172.035 110.552 172.199 110.859 172.413 111.125C172.631 111.391 172.894 111.599 173.202 111.75C173.514 111.901 173.868 111.977 174.264 111.977C174.775 111.977 175.207 111.872 175.561 111.664C175.915 111.456 176.225 111.177 176.491 110.828L177.366 111.523C177.183 111.799 176.952 112.062 176.67 112.312C176.389 112.562 176.043 112.766 175.631 112.922C175.225 113.078 174.743 113.156 174.186 113.156Z" fill="#979797" fill-opacity="0.5"/>
</svg>
