<svg width="24" height="25" viewBox="0 0 24 25" fill="none" xmlns="http://www.w3.org/2000/svg">
<path d="M12 24.4629C18.6274 24.4629 24 19.0903 24 12.4629C24 5.83547 18.6274 0.462891 12 0.462891C5.37258 0.462891 0 5.83547 0 12.4629C0 19.0903 5.37258 24.4629 12 24.4629Z" fill="#1977F3"/>
<path d="M16.6712 15.9327L17.2028 12.4631H13.875V10.212C13.875 9.2636 14.339 8.33715 15.8308 8.33715H17.3445V5.38398C17.3445 5.38398 15.9709 5.14941 14.658 5.14941C11.9175 5.14941 10.1253 6.80994 10.1253 9.8188V12.4631H7.07764V15.9327H10.1253V24.318C10.7362 24.4142 11.3623 24.4631 12.0001 24.4631C12.638 24.4631 13.2641 24.4125 13.875 24.318V15.9327H16.6712Z" fill="white"/>
</svg>
