<svg width="25" height="25" viewBox="0 0 25 25" fill="none" xmlns="http://www.w3.org/2000/svg">
<path d="M3.57598 8.25821L7.86402 11.321C8.08715 11.4804 8.19872 11.5601 8.31548 11.5785C8.41821 11.5946 8.52343 11.5783 8.61648 11.5319C8.72223 11.4791 8.80449 11.3694 8.96901 11.1501L9.87511 9.94191C9.92164 9.87987 9.9449 9.84886 9.97224 9.8221C9.99652 9.79835 10.0232 9.77712 10.0517 9.75877C10.0839 9.73809 10.1193 9.72235 10.1902 9.69086L14.0588 7.97148C14.2192 7.90021 14.2993 7.86457 14.3598 7.80891C14.4133 7.75969 14.4554 7.69939 14.4832 7.63223C14.5146 7.5563 14.5204 7.46875 14.5321 7.29365L14.8154 3.0448M14 14.2754L16.616 15.3965C16.9195 15.5266 17.0713 15.5917 17.1517 15.6997C17.2222 15.7945 17.2569 15.9112 17.2496 16.0291C17.2413 16.1635 17.1497 16.3009 16.9665 16.5756L15.7375 18.4192C15.6507 18.5494 15.6072 18.6145 15.5499 18.6617C15.4991 18.7034 15.4406 18.7347 15.3777 18.7538C15.3067 18.7754 15.2284 18.7754 15.0719 18.7754H13.0766C12.8693 18.7754 12.7656 18.7754 12.6774 18.7407C12.5995 18.7101 12.5305 18.6604 12.4768 18.5962C12.416 18.5234 12.3832 18.4251 12.3177 18.2284L11.6048 16.0898C11.5661 15.9737 11.5468 15.9157 11.5417 15.8568C11.5372 15.8045 11.5409 15.7518 11.5528 15.7007C11.5662 15.6431 11.5935 15.5884 11.6482 15.479L12.1897 14.396C12.2997 14.1759 12.3547 14.0659 12.4395 13.9976C12.5141 13.9374 12.6046 13.9 12.6999 13.8897C12.8081 13.8781 12.9248 13.917 13.1582 13.9948L14 14.2754ZM22.5 12.7754C22.5 18.2982 18.0228 22.7754 12.5 22.7754C6.97715 22.7754 2.5 18.2982 2.5 12.7754C2.5 7.25254 6.97715 2.77539 12.5 2.77539C18.0228 2.77539 22.5 7.25254 22.5 12.7754Z" stroke="#979797" stroke-width="2" stroke-linecap="round" stroke-linejoin="round"/>
</svg>
