<svg width="22" height="23" viewBox="0 0 22 23" fill="none" xmlns="http://www.w3.org/2000/svg">
<path d="M21.6023 9.50395C21.5606 9.27333 21.4393 9.06467 21.2594 8.91438C21.0796 8.7641 20.8527 8.68174 20.6184 8.68168H11.2C11.0686 8.68165 10.9386 8.70749 10.8172 8.75774C10.6959 8.80798 10.5857 8.88164 10.4928 8.9745C10.3999 9.06737 10.3263 9.17762 10.276 9.29896C10.2258 9.4203 10.1999 9.55035 10.2 9.68168V13.5498C10.1999 13.6812 10.2258 13.8112 10.276 13.9326C10.3263 14.0539 10.3999 14.1642 10.4928 14.257C10.5857 14.3499 10.6959 14.4236 10.8172 14.4738C10.9386 14.524 11.0686 14.5499 11.2 14.5498H15.1624C14.88 15.0264 14.493 15.4325 14.0305 15.7373C13.1854 16.2732 12.2004 16.5464 11.2 16.5225C10.1624 16.5106 9.15505 16.1721 8.32096 15.5549C7.48686 14.9378 6.86849 14.0734 6.55373 13.0847L6.55344 13.083C6.20317 12.0564 6.20317 10.9427 6.55344 9.91605L6.55368 9.91439C6.86866 8.9259 7.48712 8.06179 8.3212 7.44483C9.15529 6.82787 10.1626 6.48943 11.2 6.47758C11.7764 6.46435 12.3497 6.56512 12.8871 6.7741C13.4245 6.98309 13.9152 7.29616 14.3313 7.69535C14.5202 7.87591 14.7723 7.97537 15.0337 7.97245C15.295 7.96953 15.5448 7.86447 15.7297 7.67974L18.5979 4.81156C18.6929 4.71667 18.7678 4.60359 18.8182 4.47908C18.8685 4.35458 18.8932 4.22121 18.8908 4.08693C18.8885 3.95266 18.8591 3.82024 18.8044 3.69759C18.7497 3.57494 18.6708 3.46458 18.5725 3.37309C16.5766 1.5018 13.9357 0.472656 11.2 0.500045C9.15991 0.494009 7.15873 1.05806 5.4221 2.12858C3.68547 3.19911 2.28247 4.73353 1.37131 6.55883L1.36984 6.5606C0.59737 8.09235 0.19659 9.78453 0.199972 11.5C0.202406 13.2149 0.60289 14.9057 1.36989 16.4395L1.37136 16.4413C2.28252 18.2665 3.68551 19.801 5.42213 20.8715C7.15875 21.942 9.15992 22.5061 11.2 22.5C13.8853 22.568 16.4951 21.6067 18.4947 19.813L18.4954 19.8126L18.4962 19.8117L18.4964 19.8116L18.4964 19.8115C19.5803 18.7688 20.434 17.511 21.003 16.1188C21.5719 14.7267 21.8434 13.2309 21.8001 11.7276C21.8005 10.982 21.7343 10.2378 21.6023 9.50395ZM11.2 2.50004C13.071 2.48183 14.8979 3.06859 16.4085 4.17289L14.9548 5.62604C13.8526 4.8631 12.5404 4.46175 11.2 4.47758C9.9762 4.48388 8.7762 4.81617 7.7235 5.44027C6.6708 6.06437 5.80343 6.95771 5.21066 8.02837L4.14145 7.19963L3.55645 6.74595C4.36122 5.4438 5.48644 4.36975 6.82461 3.6264C8.16278 2.88306 9.66921 2.49526 11.2 2.50004ZM2.67941 14.4034C2.04009 12.5206 2.04009 10.4795 2.67941 8.59672L4.46164 9.97857C4.23377 10.9798 4.23377 12.0194 4.46164 13.0206L2.67941 14.4034ZM11.2 20.5C9.66918 20.5048 8.16274 20.117 6.82455 19.3736C5.48637 18.6302 4.36114 17.5561 3.55637 16.254L3.93478 15.9604L5.21066 14.9707C5.80317 16.0417 6.67046 16.9353 7.7232 17.5596C8.77593 18.1839 9.97606 18.5163 11.2 18.5225C12.3456 18.536 13.4783 18.2787 14.5057 17.7717L16.1974 19.085C14.7096 20.0437 12.9695 20.5364 11.2 20.5ZM17.7259 17.7393L17.5429 17.5973L16.1655 16.528C16.8877 15.7478 17.3731 14.7782 17.5652 13.7325C17.592 13.5882 17.5867 13.4397 17.5497 13.2976C17.5127 13.1555 17.4448 13.0233 17.351 12.9105C17.2571 12.7976 17.1395 12.7067 17.0066 12.6444C16.8736 12.5821 16.7286 12.5498 16.5818 12.5499H12.2V10.6817H19.7488C19.783 11.0274 19.8001 11.377 19.8001 11.7276C19.8585 13.9164 19.1216 16.0522 17.7258 17.7393H17.7259Z" fill="black"/>
</svg>
