<svg width="25" height="25" viewBox="0 0 25 25" fill="none" xmlns="http://www.w3.org/2000/svg">
<path d="M12.722 20.6303C12.542 20.8103 12.222 20.8403 12.012 20.6303C11.832 20.4503 11.802 20.1303 12.012 19.9203L15.402 16.5303L13.992 15.1203L10.602 18.5103C10.412 18.7103 10.092 18.7003 9.89205 18.5103C9.68204 18.3003 9.71204 17.9803 9.89205 17.8003L13.282 14.4103L11.872 13.0003L8.48205 16.3903C8.30205 16.5703 7.98205 16.6003 7.77205 16.3903C7.58205 16.2003 7.58205 15.8803 7.77205 15.6803L11.162 12.2903L9.74204 10.8803L6.35205 14.2703C6.17205 14.4503 5.85205 14.4803 5.64205 14.2703C5.45204 14.0703 5.45204 13.7603 5.64205 13.5603L10.022 9.18027L11.892 11.0403C12.842 11.9903 14.482 11.9803 15.432 11.0403C16.412 10.0603 16.412 8.48027 15.432 7.50027L13.572 5.64027L13.852 5.36027C14.632 4.58027 15.902 4.58027 16.682 5.36027L20.922 9.60027C21.702 10.3803 21.702 11.6503 20.922 12.4303L12.722 20.6303ZM22.332 13.8503C23.892 12.2903 23.892 9.76027 22.332 8.19027L18.092 3.95027C16.532 2.39027 14.002 2.39027 12.432 3.95027L12.152 4.23027L11.872 3.95027C10.312 2.39027 7.78205 2.39027 6.21205 3.95027L2.67205 7.49027C1.25205 8.91027 1.12205 11.1203 2.27205 12.6803L3.72205 11.2303C3.33205 10.4803 3.46205 9.53027 4.09205 8.90027L7.63205 5.36027C8.41205 4.58027 9.68204 4.58027 10.462 5.36027L14.022 8.92027C14.202 9.10027 14.232 9.42027 14.022 9.63027C13.812 9.84027 13.492 9.81027 13.312 9.63027L10.022 6.35027L4.22205 12.1403C3.24205 13.1103 3.24205 14.7003 4.22205 15.6803C4.61205 16.0703 5.11205 16.3103 5.64205 16.3803C5.71205 16.9003 5.94205 17.4003 6.34205 17.8003C6.74205 18.2003 7.24205 18.4303 7.76205 18.5003C7.83205 19.0203 8.06205 19.5203 8.46205 19.9203C8.86205 20.3203 9.36204 20.5503 9.88204 20.6203C9.95204 21.1603 10.192 21.6503 10.582 22.0403C11.052 22.5103 11.682 22.7703 12.352 22.7703C13.022 22.7703 13.652 22.5103 14.122 22.0403L22.332 13.8503Z" fill="#979797"/>
</svg>
