<svg width="20" height="20" viewBox="0 0 20 20" fill="none" xmlns="http://www.w3.org/2000/svg">
<path d="M8.93994 4.08019C9.2907 4.02642 9.64508 3.99967 9.99994 4.00019C13.1799 4.00019 16.1699 6.29018 17.9099 10.0002C17.6438 10.5648 17.3433 11.1125 17.0099 11.6402C16.9041 11.804 16.8485 11.9952 16.8499 12.1902C16.8522 12.4084 16.9257 12.6199 17.0594 12.7925C17.1931 12.965 17.3795 13.089 17.5903 13.1457C17.8011 13.2024 18.0246 13.1885 18.2267 13.1063C18.4289 13.024 18.5986 12.8779 18.7099 12.6902C19.1759 11.9581 19.5806 11.1888 19.9199 10.3902C19.9736 10.2654 20.0013 10.131 20.0013 9.99518C20.0013 9.85936 19.9736 9.72496 19.9199 9.60019C17.8999 4.91019 14.0999 2.00019 9.99994 2.00019C9.53061 1.99782 9.06203 2.03798 8.59994 2.12019C8.46862 2.14251 8.34298 2.19048 8.2302 2.26136C8.11742 2.33224 8.0197 2.42464 7.94263 2.53329C7.86555 2.64193 7.81063 2.76469 7.78101 2.89456C7.75138 3.02443 7.74762 3.15886 7.76994 3.29019C7.79227 3.42151 7.84024 3.54715 7.91112 3.65993C7.982 3.77271 8.0744 3.87043 8.18304 3.9475C8.29169 4.02457 8.41445 4.07949 8.54432 4.10912C8.67419 4.13875 8.80862 4.14251 8.93994 4.12019V4.08019ZM1.70994 0.290185C1.6167 0.196947 1.50601 0.122986 1.38419 0.0725256C1.26237 0.0220653 1.1318 -0.00390625 0.999941 -0.00390625C0.868082 -0.00390625 0.737514 0.0220653 0.615692 0.0725256C0.49387 0.122986 0.38318 0.196947 0.289941 0.290185C0.101637 0.478489 -0.00415039 0.733884 -0.00415039 1.00019C-0.00415039 1.26649 0.101637 1.52188 0.289941 1.71019L3.38994 4.80019C1.97551 6.16171 0.849798 7.79417 0.0799412 9.60019C0.0248778 9.72635 -0.00354362 9.86253 -0.00354362 10.0002C-0.00354362 10.1378 0.0248778 10.274 0.0799412 10.4002C2.09994 15.0902 5.89994 18.0002 9.99994 18.0002C11.797 17.9878 13.5517 17.4527 15.0499 16.4602L18.2899 19.7102C18.3829 19.8039 18.4935 19.8783 18.6154 19.9291C18.7372 19.9798 18.8679 20.006 18.9999 20.006C19.132 20.006 19.2627 19.9798 19.3845 19.9291C19.5064 19.8783 19.617 19.8039 19.7099 19.7102C19.8037 19.6172 19.8781 19.5066 19.9288 19.3848C19.9796 19.2629 20.0057 19.1322 20.0057 19.0002C20.0057 18.8682 19.9796 18.7375 19.9288 18.6156C19.8781 18.4937 19.8037 18.3831 19.7099 18.2902L1.70994 0.290185ZM8.06994 9.48018L10.5199 11.9302C10.3509 11.9787 10.1758 12.0022 9.99994 12.0002C9.46951 12.0002 8.9608 11.7895 8.58573 11.4144C8.21066 11.0393 7.99994 10.5306 7.99994 10.0002C7.99789 9.82437 8.02147 9.6492 8.06994 9.48018ZM9.99994 16.0002C6.81994 16.0002 3.82994 13.7102 2.09994 10.0002C2.74603 8.57393 3.66301 7.28676 4.79994 6.21019L6.56994 8.00019C6.15419 8.75898 5.99568 9.63213 6.1182 10.4886C6.24072 11.3452 6.63766 12.1388 7.24947 12.7507C7.86128 13.3625 8.65497 13.7594 9.51148 13.8819C10.368 14.0044 11.2411 13.8459 11.9999 13.4302L13.5899 15.0002C12.501 15.6411 11.2634 15.9858 9.99994 16.0002Z" fill="black"/>
</svg>
