<svg width="33" height="32" viewBox="0 0 33 32" fill="none" xmlns="http://www.w3.org/2000/svg">
<rect x="0.5" width="32" height="32" rx="16" fill="#F4F4F4"/>
<path fill-rule="evenodd" clip-rule="evenodd" d="M11.378 9C10.88 9 10.4023 9.19787 10.0501 9.55007C9.69787 9.90227 9.5 10.38 9.5 10.878C9.5 11.3761 9.69787 11.8538 10.0501 12.206C10.4023 12.5582 10.88 12.7561 11.378 12.7561C11.8761 12.7561 12.3538 12.5582 12.706 12.206C13.0582 11.8538 13.2561 11.3761 13.2561 10.878C13.2561 10.38 13.0582 9.90227 12.706 9.55007C12.3538 9.19787 11.8761 9 11.378 9ZM10.5244 10.878C10.5244 10.6516 10.6143 10.4345 10.7744 10.2744C10.9345 10.1143 11.1516 10.0244 11.378 10.0244C11.6045 10.0244 11.8216 10.1143 11.9817 10.2744C12.1418 10.4345 12.2317 10.6516 12.2317 10.878C12.2317 11.1045 12.1418 11.3216 11.9817 11.4817C11.8216 11.6418 11.6045 11.7317 11.378 11.7317C11.1516 11.7317 10.9345 11.6418 10.7744 11.4817C10.6143 11.3216 10.5244 11.1045 10.5244 10.878ZM9.5 13.6098C9.5 13.4739 9.55396 13.3436 9.65002 13.2476C9.74607 13.1515 9.87635 13.0976 10.0122 13.0976H12.7439C12.8797 13.0976 13.01 13.1515 13.1061 13.2476C13.2021 13.3436 13.2561 13.4739 13.2561 13.6098V22.4878C13.2561 22.6236 13.2021 22.7539 13.1061 22.85C13.01 22.946 12.8797 23 12.7439 23H10.0122C9.87635 23 9.74607 22.946 9.65002 22.85C9.55396 22.7539 9.5 22.6236 9.5 22.4878V13.6098ZM10.5244 14.122V21.9756H12.2317V14.122H10.5244ZM14.2805 13.6098C14.2805 13.4739 14.3345 13.3436 14.4305 13.2476C14.5266 13.1515 14.6568 13.0976 14.7927 13.0976H17.5244C17.6602 13.0976 17.7905 13.1515 17.8866 13.2476C17.9826 13.3436 18.0366 13.4739 18.0366 13.6098V13.9061L18.3337 13.7784C18.8459 13.5596 19.3893 13.4225 19.944 13.3721C21.8391 13.2 23.5 14.6888 23.5 16.601V22.4878C23.5 22.6236 23.446 22.7539 23.35 22.85C23.2539 22.946 23.1236 23 22.9878 23H20.2561C20.1203 23 19.99 22.946 19.8939 22.85C19.7979 22.7539 19.7439 22.6236 19.7439 22.4878V17.7073C19.7439 17.4809 19.654 17.2638 19.4939 17.1037C19.3338 16.9436 19.1166 16.8537 18.8902 16.8537C18.6638 16.8537 18.4467 16.9436 18.2866 17.1037C18.1265 17.2638 18.0366 17.4809 18.0366 17.7073V22.4878C18.0366 22.6236 17.9826 22.7539 17.8866 22.85C17.7905 22.946 17.6602 23 17.5244 23H14.7927C14.6568 23 14.5266 22.946 14.4305 22.85C14.3345 22.7539 14.2805 22.6236 14.2805 22.4878V13.6098ZM15.3049 14.122V21.9756H17.0122V17.7073C17.0122 17.2092 17.2101 16.7315 17.5623 16.3793C17.9145 16.0271 18.3922 15.8293 18.8902 15.8293C19.3883 15.8293 19.866 16.0271 20.2182 16.3793C20.5704 16.7315 20.7683 17.2092 20.7683 17.7073V21.9756H22.4756V16.601C22.4756 15.3007 21.3413 14.2736 20.0376 14.3924C19.5897 14.433 19.1509 14.5436 18.7373 14.7202L17.7265 15.1539C17.6486 15.1873 17.5635 15.2009 17.479 15.1934C17.3945 15.1859 17.3132 15.1575 17.2424 15.1108C17.1715 15.0641 17.1134 15.0005 17.0732 14.9258C17.0331 14.851 17.0121 14.7675 17.0122 14.6826V14.122H15.3049Z" fill="black"/>
</svg>
