<svg width="24" height="25" viewBox="0 0 24 25" fill="none" xmlns="http://www.w3.org/2000/svg">
<path d="M8.46676 14.1883H11.7068C13.281 14.1883 14.7525 14.8086 15.8505 15.9351C15.9762 16.0597 16.1458 16.13 16.3229 16.1308C16.4999 16.1316 16.6701 16.0628 16.7969 15.9393C16.9237 15.8157 16.9969 15.6473 17.0007 15.4703C17.0045 15.2933 16.9386 15.1219 16.8173 14.9931C15.9451 14.0969 14.8513 13.4474 13.647 13.1106C14.5347 12.5232 15.263 11.7252 15.7672 10.7878C16.2713 9.85035 16.5354 8.80269 16.536 7.73831C16.536 4.18256 13.6433 1.28906 10.0868 1.28906C6.53026 1.28906 3.63676 4.18181 3.63676 7.73831C3.63735 8.8035 3.90195 9.85194 4.40689 10.7898C4.91184 11.7277 5.64138 12.5259 6.53026 13.1128C3.53551 13.9588 1.33276 16.7098 1.33276 19.9716V20.8941C1.33276 21.9088 2.04976 22.7811 3.03526 22.9671C5.33626 23.4133 7.70851 23.6391 10.086 23.6391C10.2203 23.6391 10.3538 23.6391 10.4865 23.6308C10.6652 23.6196 10.8322 23.538 10.9509 23.4039C11.0695 23.2698 11.1302 23.0941 11.1195 22.9153C11.1074 22.7371 11.0256 22.5709 10.8918 22.4526C10.758 22.3343 10.5831 22.2734 10.4048 22.2831C10.311 22.2891 10.2173 22.2891 10.1235 22.2891C7.83001 22.3176 5.52151 22.0738 3.28876 21.6411C3.11669 21.6065 2.96207 21.513 2.85158 21.3766C2.74109 21.2402 2.68165 21.0696 2.68351 20.8941V19.9716C2.68426 16.7818 5.27776 14.1883 8.46676 14.1883ZM4.98826 7.73756C4.98826 4.92581 7.27576 2.63831 10.0875 2.63831C12.8993 2.63831 15.186 4.92581 15.186 7.73756C15.186 10.5493 12.8993 12.8368 10.0875 12.8368C7.27576 12.8368 4.98826 10.5493 4.98826 7.73756ZM14.2913 20.5266C14.2913 20.7056 14.3624 20.8773 14.489 21.0039C14.6156 21.1304 14.7872 21.2016 14.9663 21.2016H19.4723C19.6513 21.2016 19.823 21.1304 19.9496 21.0039C20.0761 20.8773 20.1473 20.7056 20.1473 20.5266C20.1473 20.3475 20.0761 20.1758 19.9496 20.0493C19.823 19.9227 19.6513 19.8516 19.4723 19.8516H14.9663C14.7872 19.8516 14.6156 19.9227 14.489 20.0493C14.3624 20.1758 14.2913 20.3475 14.2913 20.5266Z" fill="black"/>
<path d="M19.5511 17.4099H18.3646C18.1855 17.4099 18.0138 17.481 17.8873 17.6076C17.7607 17.7342 17.6896 17.9059 17.6896 18.0849C17.6896 18.264 17.7607 18.4356 17.8873 18.5622C18.0138 18.6888 18.1855 18.7599 18.3646 18.7599H19.5511C20.019 18.7603 20.4676 18.9464 20.7985 19.2773C21.1294 19.6081 21.3154 20.0568 21.3158 20.5247C21.3152 20.9925 21.1291 21.4409 20.7982 21.7716C20.4674 22.1023 20.0188 22.2883 19.5511 22.2887H18.3646C18.1855 22.2887 18.0138 22.3598 17.8873 22.4864C17.7607 22.613 17.6896 22.7847 17.6896 22.9637C17.6896 23.1427 17.7607 23.3144 17.8873 23.441C18.0138 23.5676 18.1855 23.6387 18.3646 23.6387H19.5511C21.2686 23.6387 22.6658 22.2422 22.6658 20.5247C22.6658 18.8072 21.2686 17.4099 19.5511 17.4099ZM16.0748 22.2879H14.8876C13.9148 22.2879 13.1236 21.4967 13.1236 20.5239C13.1236 19.5512 13.9148 18.7592 14.8876 18.7592H16.0748C16.2538 18.7592 16.4255 18.6881 16.5521 18.5615C16.6787 18.4349 16.7498 18.2632 16.7498 18.0842C16.7498 17.9052 16.6787 17.7335 16.5521 17.6069C16.4255 17.4803 16.2538 17.4092 16.0748 17.4092H14.8876C13.1708 17.4092 11.7736 18.8064 11.7736 20.5232C11.7736 22.2399 13.1708 23.6379 14.8876 23.6379H16.0748C16.2538 23.6379 16.4255 23.5668 16.5521 23.4402C16.6787 23.3136 16.7498 23.142 16.7498 22.9629C16.7498 22.7839 16.6787 22.6122 16.5521 22.4856C16.4255 22.359 16.2538 22.2879 16.0748 22.2879Z" fill="black"/>
</svg>
