<svg width="25" height="24" viewBox="0 0 25 24" fill="none" xmlns="http://www.w3.org/2000/svg">
<path d="M8.46289 10V7C8.46289 5.93913 8.88432 4.92172 9.63446 4.17157C10.3846 3.42143 11.402 3 12.4629 3C13.5238 3 14.5412 3.42143 15.2913 4.17157C16.0415 4.92172 16.4629 5.93913 16.4629 7V10" stroke="black" stroke-width="2" stroke-linecap="round"/>
<path d="M5.46289 10H19.4629V19C19.4629 19.5304 19.2522 20.0391 18.8771 20.4142C18.502 20.7893 17.9933 21 17.4629 21H7.46289C6.93246 21 6.42375 20.7893 6.04868 20.4142C5.6736 20.0391 5.46289 19.5304 5.46289 19V10Z" stroke="black" stroke-width="2" stroke-linejoin="round"/>
<path d="M14.9629 15.5H14.9726V15.5097H14.9629V15.5Z" stroke="black" stroke-width="3" stroke-linejoin="round"/>
</svg>
