<svg width="24" height="24" viewBox="0 0 24 24" fill="none" xmlns="http://www.w3.org/2000/svg">
<path d="M15.2647 5.27344C14.1184 5.27298 12.9913 5.56744 11.9917 6.12849C10.9678 5.5562 9.81207 5.26156 8.63915 5.27382C7.46622 5.28607 6.31688 5.60478 5.30515 6.19833C4.29343 6.79189 3.45447 7.63965 2.87152 8.65752C2.28856 9.6754 1.98187 10.828 1.98187 12.001C1.98187 13.174 2.28856 14.3266 2.87152 15.3445C3.45447 16.3623 4.29343 17.2101 5.30515 17.8036C6.31688 18.3972 7.46622 18.7159 8.63915 18.7282C9.81207 18.7404 10.9678 18.4458 11.9917 17.8735C12.8891 18.3737 13.8892 18.6617 14.9152 18.7153C15.9412 18.769 16.9658 18.5868 17.9105 18.1829C18.8552 17.779 19.6947 17.164 20.3648 16.3851C21.0348 15.6063 21.5175 14.6843 21.7758 13.6899C22.0341 12.6955 22.0611 11.6551 21.8549 10.6487C21.6486 9.64218 21.2144 8.69634 20.5858 7.88372C19.9571 7.07111 19.1507 6.41332 18.2283 5.96085C17.3059 5.50838 16.2921 5.27324 15.2647 5.27349V5.27344ZM10.2371 16.456C9.74964 16.6305 9.23651 16.7226 8.71877 16.7285C7.46495 16.7285 6.26248 16.2305 5.37589 15.3439C4.48931 14.4573 3.99123 13.2548 3.99123 12.001C3.99123 10.7472 4.48931 9.54472 5.37589 8.65813C6.26248 7.77155 7.46495 7.27347 8.71877 7.27347C9.23651 7.27945 9.74964 7.37156 10.2371 7.546C9.14231 8.77166 8.53714 10.3576 8.53714 12.001C8.53714 13.6444 9.14231 15.2303 10.2371 16.456V16.456ZM11.9917 15.3986C11.532 14.9602 11.1661 14.433 10.9161 13.8489C10.666 13.2649 10.5371 12.6363 10.5371 12.001C10.5371 11.3657 10.666 10.737 10.9161 10.153C11.1661 9.56901 11.532 9.04181 11.9917 8.60334C12.4514 9.04181 12.8173 9.56901 13.0674 10.153C13.3174 10.737 13.4463 11.3657 13.4463 12.001C13.4463 12.6363 13.3174 13.2649 13.0674 13.8489C12.8173 14.433 12.4514 14.9602 11.9917 15.3986ZM15.2647 16.7285C14.7469 16.7225 14.2338 16.6304 13.7463 16.456C14.8411 15.2303 15.4463 13.6444 15.4463 12.001C15.4463 10.3576 14.8411 8.77166 13.7463 7.546C14.2338 7.37155 14.7469 7.27945 15.2647 7.27347C16.5185 7.27347 17.721 7.77155 18.6075 8.65813C19.4941 9.54472 19.9922 10.7472 19.9922 12.001C19.9922 13.2548 19.4941 14.4573 18.6075 15.3439C17.721 16.2305 16.5185 16.7285 15.2647 16.7285V16.7285Z" fill="black"/>
</svg>
