<svg width="12" height="12" viewBox="0 0 12 12" fill="none" xmlns="http://www.w3.org/2000/svg">
<path d="M11 3.62001C11.0004 3.5542 10.9878 3.48897 10.9629 3.42806C10.938 3.36714 10.9013 3.31173 10.855 3.26501L8.73501 1.14501C8.68829 1.09867 8.63288 1.06201 8.57196 1.03712C8.51104 1.01224 8.44581 0.999628 8.38001 1.00001C8.31421 0.999628 8.24897 1.01224 8.18806 1.03712C8.12714 1.06201 8.07173 1.09867 8.02501 1.14501L6.61001 2.56001L1.14501 8.02501C1.09867 8.07173 1.06201 8.12714 1.03712 8.18806C1.01224 8.24897 0.999628 8.31421 1.00001 8.38001V10.5C1.00001 10.6326 1.05269 10.7598 1.14645 10.8536C1.24022 10.9473 1.3674 11 1.50001 11H3.62001C3.68997 11.0038 3.75995 10.9929 3.82542 10.9679C3.89088 10.9429 3.95036 10.9045 4.00001 10.855L9.43501 5.39001L10.855 4.00001C10.9006 3.95155 10.9378 3.89577 10.965 3.83501C10.9698 3.79515 10.9698 3.75486 10.965 3.71501C10.9673 3.69173 10.9673 3.66828 10.965 3.64501L11 3.62001ZM3.41501 10H2.00001V8.58501L6.96501 3.62001L8.38001 5.03501L3.41501 10ZM9.08501 4.33001L7.67001 2.91501L8.38001 2.21001L9.79001 3.62001L9.08501 4.33001Z" fill="black"/>
</svg>
