<svg width="20" height="20" viewBox="0 0 20 20" fill="none" xmlns="http://www.w3.org/2000/svg">
<circle cx="10" cy="10" r="10" fill="#233BEF"/>
<path d="M14.0883 7.1601C13.5582 6.6347 13.1556 6.256 12.107 6.256C11.0583 6.256 10.6138 6.99862 10.0073 7.4359C9.37094 6.96806 8.93332 6.25 7.79067 6.25C6.72223 6.25 6.27654 6.71457 5.75918 7.3087C5.24181 7.90283 4.9714 8.66866 5.0024 9.45197C5.0334 10.2353 5.3635 10.9779 5.92623 11.5303L9.03202 14.6052C9.2921 14.8582 9.64237 15 10.0073 15C10.3722 15 10.7224 14.8582 10.9825 14.6052L14.0883 11.5303C14.6722 10.9495 15 10.164 15 9.34518C15 8.52638 14.6722 7.74085 14.0883 7.1601Z" fill="white"/>
</svg>
