<svg width="24" height="25" viewBox="0 0 24 25" fill="none" xmlns="http://www.w3.org/2000/svg">
<path d="M12 23.0699C11.7024 23.0696 11.4098 22.9931 11.15 22.8479L7.78 20.9759C6.10454 20.0444 4.70845 18.6821 3.73619 17.0299C2.76393 15.3778 2.25083 13.4959 2.25 11.5789V6.38287C2.24995 5.95049 2.41024 5.53346 2.69988 5.21243C2.98951 4.89139 3.3879 4.68917 3.818 4.64487C5.15883 4.50275 6.47845 4.20439 7.75 3.75587C8.91583 3.34376 10.0342 2.80804 11.086 2.15787C11.3611 1.98949 11.6774 1.90039 12 1.90039C12.3226 1.90039 12.6389 1.98949 12.914 2.15787C13.9659 2.80786 15.0842 3.34357 16.25 3.75587C17.5216 4.20439 18.8412 4.50275 20.182 4.64487C20.6121 4.68917 21.0105 4.89139 21.3001 5.21243C21.5898 5.53346 21.75 5.95049 21.75 6.38287V11.5789C21.7492 13.4959 21.2361 15.3778 20.2638 17.0299C19.2916 18.6821 17.8955 20.0444 16.22 20.9759L12.85 22.8489C12.5902 22.9939 12.2976 23.07 12 23.0699ZM12 3.39987C11.956 3.39948 11.9127 3.41125 11.875 3.43387C10.732 4.14033 9.51675 4.72264 8.25 5.17087C6.86825 5.65855 5.43416 5.98276 3.977 6.13687C3.9151 6.14213 3.85743 6.17043 3.8154 6.21617C3.77337 6.2619 3.75003 6.32175 3.75 6.38387V11.5799C3.75054 13.2294 4.19192 14.8488 5.02846 16.2705C5.865 17.6921 7.06629 18.8644 8.508 19.6659L11.878 21.5379C11.9149 21.5586 11.9566 21.5695 11.999 21.5695C12.0414 21.5695 12.0831 21.5586 12.12 21.5379L15.492 19.6659C16.9337 18.8644 18.135 17.6921 18.9715 16.2705C19.8081 14.8488 20.2495 13.2294 20.25 11.5799V6.38287C20.25 6.32075 20.2266 6.2609 20.1846 6.21517C20.1426 6.16943 20.0849 6.14113 20.023 6.13587C18.5658 5.98176 17.1317 5.65755 15.75 5.16987C14.4833 4.72227 13.2681 4.14064 12.125 3.43487C12.0874 3.4117 12.0441 3.39957 12 3.39987Z" fill="black"/>
<path d="M11.5 14.7131C11.3162 14.7133 11.1389 14.6456 11.002 14.5231L8.75197 12.5231C8.61246 12.3887 8.53037 12.2055 8.5229 12.0119C8.51543 11.8184 8.58315 11.6294 8.71189 11.4846C8.84063 11.3399 9.02039 11.2505 9.21353 11.2353C9.40666 11.2201 9.59818 11.2803 9.74797 11.4031L11.452 12.9171L14.703 9.45014C14.7699 9.37662 14.8508 9.31715 14.9409 9.27518C15.031 9.23321 15.1286 9.20958 15.228 9.20566C15.3273 9.20174 15.4264 9.21761 15.5196 9.25235C15.6127 9.28709 15.6981 9.34001 15.7706 9.40802C15.8431 9.47603 15.9014 9.55778 15.942 9.64852C15.9827 9.73925 16.0048 9.83716 16.0073 9.93656C16.0098 10.0359 15.9924 10.1348 15.9563 10.2275C15.9202 10.3201 15.866 10.4046 15.797 10.4761L12.047 14.4761C11.9769 14.5511 11.8922 14.6108 11.7981 14.6516C11.704 14.6923 11.6025 14.7133 11.5 14.7131Z" fill="black"/>
</svg>
