<svg width="70" height="70" viewBox="0 0 70 70" fill="none" xmlns="http://www.w3.org/2000/svg">
<path d="M65.9167 6.12502C65.625 5.25002 64.75 4.37502 63.875 4.08335C51.625 0.875022 39.0833 4.66669 30.625 14.5834L27.4167 18.375L19.5417 16.625C15.75 15.1667 11.6667 16.9167 9.91667 20.4167L3.5 31.7917C2.91667 32.6667 2.91667 33.5417 3.5 34.4167C3.79167 35.2917 4.66667 35.875 5.54167 36.1667L14.5833 38.2084C13.7083 40.5417 13.4167 42.875 12.8333 45.2084C12.8333 46.0834 13.125 46.9584 13.7083 47.5417L22.75 56.5834C23.3333 57.1667 23.9167 57.4584 24.7917 57.4584H25.0833C27.7083 57.1667 30.0417 56.875 32.375 56L34.125 64.75C34.4167 65.625 35 66.5 35.875 66.7917C36.1667 67.0834 36.75 67.0834 37.0417 67.0834C37.625 67.0834 37.9167 67.0834 38.5 66.7917L49.875 60.375C53.0833 58.625 54.8333 54.5417 53.9583 50.75L51.9167 42.5834L55.4167 39.375C65.0417 31.2084 69.125 18.0834 65.9167 6.12502ZM21.2917 25.6667C19.5417 28 17.7917 30.3334 16.625 32.6667L10.5 31.2084L14.875 23.3334C15.4583 22.1667 16.625 21.875 18.0833 22.1667L23.0417 23.3334L21.2917 25.6667ZM46.6667 55.125L38.7917 59.5L37.625 53.6667C40.25 52.5 42.5833 50.75 44.625 49L46.6667 46.9584L47.8333 51.9167C48.4167 53.375 47.5417 54.8334 46.6667 55.125ZM48.7083 25.6667C46.375 25.6667 44.3333 23.625 44.3333 21.2917C44.3333 18.9584 46.375 16.9167 48.7083 16.9167C51.0417 16.9167 53.0833 18.9584 53.0833 21.2917C53.0833 23.625 51.3333 25.6667 48.7083 25.6667Z" fill="black"/>
</svg>
