<svg width="18" height="20" viewBox="0 0 18 20" fill="none" xmlns="http://www.w3.org/2000/svg">
<path d="M15.3439 10.4202L9.41554 16.6102C8.63834 17.3302 7.6266 17.7135 6.58729 17.6816C5.54798 17.6497 4.55962 17.2051 3.8244 16.4386C3.08918 15.6722 2.66264 14.6419 2.63205 13.5585C2.60145 12.4751 2.96911 11.4204 3.65981 10.6102L11.3341 2.61021C11.7923 2.15651 12.4001 1.90354 13.0321 1.90354C13.664 1.90354 14.2718 2.15651 14.73 2.61021C15.1764 3.0818 15.4267 3.71768 15.4267 4.38021C15.4267 5.04274 15.1764 5.67862 14.73 6.15021L8.11091 13.0402C8.0454 13.1138 7.96664 13.1731 7.87912 13.2149C7.7916 13.2567 7.69704 13.2802 7.60084 13.2839C7.50463 13.2876 7.40867 13.2715 7.31842 13.2366C7.22818 13.2016 7.14542 13.1485 7.07488 13.0802C7.00433 13.0119 6.94738 12.9298 6.90727 12.8386C6.86716 12.7474 6.84468 12.6488 6.84112 12.5485C6.83756 12.4482 6.85298 12.3482 6.8865 12.2541C6.92003 12.16 6.971 12.0738 7.0365 12.0002L11.9576 6.88021C12.1383 6.69191 12.2398 6.43651 12.2398 6.17021C12.2398 5.90391 12.1383 5.64852 11.9576 5.46021C11.777 5.27191 11.532 5.16612 11.2766 5.16612C11.0211 5.16612 10.7761 5.27191 10.5955 5.46021L5.67432 10.6002C5.42807 10.8549 5.23263 11.1579 5.09925 11.4917C4.96588 11.8256 4.89721 12.1836 4.89721 12.5452C4.89721 12.9068 4.96588 13.2649 5.09925 13.5987C5.23263 13.9325 5.42807 14.2355 5.67432 14.4902C6.17734 14.9897 6.84542 15.2683 7.54013 15.2683C8.23484 15.2683 8.90292 14.9897 9.40594 14.4902L16.0154 7.59021C16.778 6.73716 17.1931 5.60888 17.1733 4.44308C17.1536 3.27727 16.7006 2.16496 15.9097 1.34048C15.1187 0.516003 14.0517 0.0437313 12.9334 0.023162C11.815 0.00259272 10.7327 0.435332 9.91437 1.23021L2.24007 9.23021C1.20519 10.425 0.652473 11.9901 0.697085 13.5992C0.741697 15.2083 1.38019 16.7374 2.47954 17.868C3.57889 18.9985 5.05431 19.6433 6.59838 19.6679C8.14246 19.6925 9.63611 19.0951 10.7681 18.0002L16.7061 11.8202C16.7956 11.727 16.8665 11.6163 16.9149 11.4945C16.9633 11.3726 16.9882 11.2421 16.9882 11.1102C16.9882 10.9784 16.9633 10.8478 16.9149 10.726C16.8665 10.6041 16.7956 10.4935 16.7061 10.4002C16.6167 10.307 16.5105 10.233 16.3936 10.1826C16.2768 10.1321 16.1515 10.1061 16.025 10.1061C15.8985 10.1061 15.7733 10.1321 15.6564 10.1826C15.5396 10.233 15.4334 10.307 15.3439 10.4002V10.4202Z" fill="black"/>
</svg>
