<svg width="25" height="24" viewBox="0 0 25 24" fill="none" xmlns="http://www.w3.org/2000/svg">
<path d="M20.5001 8.00001L14.5001 2.74001C13.9501 2.24805 13.238 1.97607 12.5001 1.97607C11.7622 1.97607 11.0501 2.24805 10.5001 2.74001L4.50009 8.00001C4.18246 8.28408 3.92899 8.63256 3.75657 9.02225C3.58414 9.41194 3.49671 9.83389 3.50009 10.26V19C3.50009 19.7957 3.81617 20.5587 4.37877 21.1213C4.94138 21.6839 5.70445 22 6.50009 22H18.5001C19.2957 22 20.0588 21.6839 20.6214 21.1213C21.184 20.5587 21.5001 19.7957 21.5001 19V10.25C21.5021 9.82557 21.4139 9.40555 21.2416 9.01769C21.0692 8.62983 20.8165 8.28296 20.5001 8.00001ZM14.5001 20H10.5001V15C10.5001 14.7348 10.6055 14.4804 10.793 14.2929C10.9805 14.1054 11.2349 14 11.5001 14H13.5001C13.7653 14 14.0197 14.1054 14.2072 14.2929C14.3947 14.4804 14.5001 14.7348 14.5001 15V20ZM19.5001 19C19.5001 19.2652 19.3947 19.5196 19.2072 19.7071C19.0197 19.8946 18.7653 20 18.5001 20H16.5001V15C16.5001 14.2044 16.184 13.4413 15.6214 12.8787C15.0588 12.3161 14.2957 12 13.5001 12H11.5001C10.7044 12 9.94138 12.3161 9.37877 12.8787C8.81616 13.4413 8.50009 14.2044 8.50009 15V20H6.50009C6.23488 20 5.98052 19.8946 5.79299 19.7071C5.60545 19.5196 5.50009 19.2652 5.50009 19V10.25C5.50027 10.108 5.53069 9.9677 5.58931 9.83839C5.64794 9.70907 5.73343 9.59372 5.8401 9.50001L11.8401 4.25001C12.0226 4.08969 12.2572 4.00127 12.5001 4.00127C12.743 4.00127 12.9776 4.08969 13.1601 4.25001L19.1601 9.50001C19.2668 9.59372 19.3523 9.70907 19.4109 9.83839C19.4695 9.9677 19.4999 10.108 19.5001 10.25V19Z" fill="#233BEF"/>
</svg>
