<svg width="25" height="24" viewBox="0 0 25 24" fill="none" xmlns="http://www.w3.org/2000/svg">
<path d="M5.46289 17.9999H9.70289C9.8345 18.0007 9.96496 17.9755 10.0868 17.9257C10.2086 17.8759 10.3195 17.8026 10.4129 17.7099L17.3329 10.7799L20.1729 7.99994C20.2666 7.90698 20.341 7.79637 20.3918 7.67452C20.4426 7.55266 20.4687 7.42195 20.4687 7.28994C20.4687 7.15793 20.4426 7.02722 20.3918 6.90536C20.341 6.7835 20.2666 6.6729 20.1729 6.57994L15.9329 2.28994C15.8399 2.19621 15.7293 2.12182 15.6075 2.07105C15.4856 2.02028 15.3549 1.99414 15.2229 1.99414C15.0909 1.99414 14.9602 2.02028 14.8383 2.07105C14.7165 2.12182 14.6059 2.19621 14.5129 2.28994L11.6929 5.11994L4.75289 12.0499C4.66021 12.1434 4.58688 12.2542 4.53712 12.376C4.48735 12.4979 4.46213 12.6283 4.46289 12.7599V16.9999C4.46289 17.2652 4.56825 17.5195 4.75578 17.707C4.94332 17.8946 5.19767 17.9999 5.46289 17.9999ZM15.2229 4.40994L18.0529 7.23994L16.6329 8.65994L13.8029 5.82994L15.2229 4.40994ZM6.46289 13.1699L12.3929 7.23994L15.2229 10.0699L9.29289 15.9999H6.46289V13.1699ZM21.4629 19.9999H3.46289C3.19767 19.9999 2.94332 20.1053 2.75578 20.2928C2.56825 20.4804 2.46289 20.7347 2.46289 20.9999C2.46289 21.2652 2.56825 21.5195 2.75578 21.707C2.94332 21.8946 3.19767 21.9999 3.46289 21.9999H21.4629C21.7281 21.9999 21.9825 21.8946 22.17 21.707C22.3575 21.5195 22.4629 21.2652 22.4629 20.9999C22.4629 20.7347 22.3575 20.4804 22.17 20.2928C21.9825 20.1053 21.7281 19.9999 21.4629 19.9999Z" fill="#233BEF"/>
</svg>
