<svg width="25" height="24" viewBox="0 0 25 24" fill="none" xmlns="http://www.w3.org/2000/svg">
<path d="M16.1734 12.7096C17.1538 11.9383 17.8694 10.8806 18.2206 9.68358C18.5719 8.4866 18.5413 7.2099 18.1332 6.0311C17.725 4.85231 16.9596 3.83003 15.9434 3.10649C14.9273 2.38296 13.7108 1.99414 12.4634 1.99414C11.2159 1.99414 9.99949 2.38296 8.98331 3.10649C7.96712 3.83003 7.20172 4.85231 6.79359 6.0311C6.38546 7.2099 6.35489 8.4866 6.70614 9.68358C7.05739 10.8806 7.77298 11.9383 8.75338 12.7096C7.07345 13.3827 5.60766 14.499 4.51227 15.9396C3.41687 17.3801 2.73294 19.0909 2.53338 20.8896C2.51893 21.021 2.53049 21.1538 2.5674 21.2807C2.60431 21.4075 2.66584 21.5259 2.74849 21.629C2.91539 21.8371 3.15816 21.9705 3.42338 21.9996C3.68859 22.0288 3.95454 21.9514 4.1627 21.7845C4.37087 21.6176 4.5042 21.3749 4.53338 21.1096C4.75296 19.1548 5.68506 17.3494 7.15159 16.0384C8.61813 14.7274 10.5163 14.0027 12.4834 14.0027C14.4505 14.0027 16.3486 14.7274 17.8152 16.0384C19.2817 17.3494 20.2138 19.1548 20.4334 21.1096C20.4606 21.3554 20.5778 21.5823 20.7625 21.7467C20.9472 21.911 21.1862 22.0011 21.4334 21.9996H21.5434C21.8055 21.9695 22.0451 21.8369 22.2099 21.6309C22.3748 21.4248 22.4515 21.162 22.4234 20.8996C22.2229 19.0958 21.5352 17.3806 20.4342 15.9378C19.3332 14.4951 17.8603 13.3791 16.1734 12.7096ZM12.4634 11.9996C11.6723 11.9996 10.8989 11.765 10.2411 11.3255C9.5833 10.886 9.07061 10.2613 8.76786 9.53037C8.46511 8.79947 8.38589 7.9952 8.54023 7.21928C8.69457 6.44335 9.07554 5.73062 9.63495 5.17121C10.1944 4.6118 10.9071 4.23084 11.683 4.0765C12.4589 3.92215 13.2632 4.00137 13.9941 4.30412C14.725 4.60687 15.3497 5.11956 15.7893 5.77736C16.2288 6.43515 16.4634 7.20851 16.4634 7.99964C16.4634 9.0605 16.0419 10.0779 15.2918 10.8281C14.5417 11.5782 13.5242 11.9996 12.4634 11.9996Z" fill="#233BEF"/>
</svg>
