<svg width="25" height="24" viewBox="0 0 25 24" fill="none" xmlns="http://www.w3.org/2000/svg">
<path d="M14.6229 12.21C14.7163 12.3027 14.8272 12.376 14.949 12.4258C15.0708 12.4755 15.2013 12.5008 15.3329 12.5C15.4645 12.5008 15.595 12.4755 15.7168 12.4258C15.8386 12.376 15.9495 12.3027 16.0429 12.21C16.1366 12.117 16.211 12.0064 16.2618 11.8846C16.3126 11.7627 16.3387 11.632 16.3387 11.5C16.3387 11.368 16.3126 11.2373 16.2618 11.1154C16.211 10.9936 16.1366 10.883 16.0429 10.79L15.2529 10L16.0429 9.21C16.1361 9.11676 16.2101 9.00607 16.2606 8.88425C16.311 8.76243 16.337 8.63186 16.337 8.5C16.337 8.36814 16.311 8.23757 16.2606 8.11575C16.2101 7.99393 16.1361 7.88324 16.0429 7.79C15.9497 7.69676 15.839 7.6228 15.7171 7.57234C15.5953 7.52188 15.4648 7.49591 15.3329 7.49591C15.201 7.49591 15.0705 7.52188 14.9486 7.57234C14.8268 7.6228 14.7161 7.69676 14.6229 7.79L13.1229 9.29C13.0292 9.38296 12.9548 9.49356 12.904 9.61542C12.8532 9.73728 12.8271 9.86799 12.8271 10C12.8271 10.132 12.8532 10.2627 12.904 10.3846C12.9548 10.5064 13.0292 10.617 13.1229 10.71L14.6229 12.21ZM9.54289 12.21L11.0429 10.71C11.1366 10.617 11.211 10.5064 11.2618 10.3846C11.3126 10.2627 11.3387 10.132 11.3387 10C11.3387 9.86799 11.3126 9.73728 11.2618 9.61542C11.211 9.49356 11.1366 9.38296 11.0429 9.29L9.54289 7.79C9.35459 7.6017 9.0992 7.49591 8.83289 7.49591C8.56659 7.49591 8.3112 7.6017 8.12289 7.79C7.93459 7.9783 7.8288 8.2337 7.8288 8.5C7.8288 8.7663 7.93459 9.0217 8.12289 9.21L8.92289 10L8.12289 10.79C8.02917 10.883 7.95477 10.9936 7.904 11.1154C7.85323 11.2373 7.8271 11.368 7.8271 11.5C7.8271 11.632 7.85323 11.7627 7.904 11.8846C7.95477 12.0064 8.02917 12.117 8.12289 12.21C8.21633 12.3027 8.32715 12.376 8.44899 12.4258C8.57083 12.4755 8.70129 12.5008 8.83289 12.5C8.9645 12.5008 9.09496 12.4755 9.2168 12.4258C9.33864 12.376 9.44945 12.3027 9.54289 12.21ZM14.8229 14.21C14.1544 14.749 13.3216 15.0429 12.4629 15.0429C11.6042 15.0429 10.7714 14.749 10.1029 14.21C9.89868 14.0403 9.6354 13.9586 9.37097 13.983C9.10654 14.0074 8.86263 14.1358 8.6929 14.34C8.52316 14.5442 8.44149 14.8075 8.46587 15.0719C8.49025 15.3364 8.61868 15.5803 8.82289 15.75C9.84423 16.6026 11.1325 17.0696 12.4629 17.0696C13.7933 17.0696 15.0816 16.6026 16.1029 15.75C16.3071 15.5803 16.4355 15.3364 16.4599 15.0719C16.4843 14.8075 16.4026 14.5442 16.2329 14.34C16.1488 14.2389 16.0457 14.1553 15.9294 14.0941C15.813 14.0328 15.6858 13.9951 15.5548 13.983C15.2904 13.9586 15.0271 14.0403 14.8229 14.21ZM12.4629 2C10.4851 2 8.55168 2.58649 6.90719 3.6853C5.2627 4.78412 3.98098 6.3459 3.2241 8.17317C2.46722 10.0004 2.26919 12.0111 2.65504 13.9509C3.04089 15.8907 3.9933 17.6725 5.39183 19.0711C6.79035 20.4696 8.57218 21.422 10.512 21.8079C12.4518 22.1937 14.4625 21.9957 16.2897 21.2388C18.117 20.4819 19.6788 19.2002 20.7776 17.5557C21.8764 15.9112 22.4629 13.9778 22.4629 12C22.4629 10.6868 22.2042 9.38642 21.7017 8.17317C21.1991 6.95991 20.4625 5.85752 19.534 4.92893C18.6054 4.00035 17.503 3.26375 16.2897 2.7612C15.0765 2.25866 13.7761 2 12.4629 2ZM12.4629 20C10.8806 20 9.33393 19.5308 8.01833 18.6518C6.70274 17.7727 5.67736 16.5233 5.07186 15.0615C4.46636 13.5997 4.30793 11.9911 4.61661 10.4393C4.92529 8.88743 5.68722 7.46197 6.80604 6.34315C7.92486 5.22433 9.35033 4.4624 10.9022 4.15372C12.454 3.84504 14.0626 4.00346 15.5244 4.60896C16.9862 5.21447 18.2356 6.23984 19.1147 7.55544C19.9937 8.87103 20.4629 10.4177 20.4629 12C20.4629 14.1217 19.62 16.1566 18.1198 17.6569C16.6195 19.1571 14.5846 20 12.4629 20Z" fill="#233BEF"/>
</svg>
