<svg width="25" height="24" viewBox="0 0 25 24" fill="none" xmlns="http://www.w3.org/2000/svg">
<path d="M18.4629 13.18V10C18.4615 8.58312 17.9586 7.21247 17.0435 6.13077C16.1284 5.04908 14.86 4.32615 13.4629 4.09V3C13.4629 2.73478 13.3575 2.48043 13.17 2.29289C12.9825 2.10536 12.7281 2 12.4629 2C12.1977 2 11.9433 2.10536 11.7558 2.29289C11.5682 2.48043 11.4629 2.73478 11.4629 3V4.09C10.0658 4.32615 8.79741 5.04908 7.88228 6.13077C6.96714 7.21247 6.46433 8.58312 6.46289 10V13.18C5.87934 13.3863 5.37389 13.7681 5.01583 14.2729C4.65777 14.7778 4.46463 15.3811 4.46289 16V18C4.46289 18.2652 4.56825 18.5196 4.75578 18.7071C4.94332 18.8946 5.19767 19 5.46289 19H8.60289C8.83317 19.8474 9.33589 20.5954 10.0335 21.1287C10.7311 21.6621 11.5848 21.951 12.4629 21.951C13.341 21.951 14.1947 21.6621 14.8923 21.1287C15.5899 20.5954 16.0926 19.8474 16.3229 19H19.4629C19.7281 19 19.9825 18.8946 20.17 18.7071C20.3575 18.5196 20.4629 18.2652 20.4629 18V16C20.4612 15.3811 20.268 14.7778 19.91 14.2729C19.5519 13.7681 19.0464 13.3863 18.4629 13.18ZM8.46289 10C8.46289 8.93913 8.88432 7.92172 9.63446 7.17157C10.3846 6.42143 11.402 6 12.4629 6C13.5238 6 14.5412 6.42143 15.2913 7.17157C16.0415 7.92172 16.4629 8.93913 16.4629 10V13H8.46289V10ZM12.4629 20C12.1139 19.9979 11.7715 19.9045 11.4697 19.7291C11.168 19.5536 10.9174 19.3023 10.7429 19H14.1829C14.0084 19.3023 13.7578 19.5536 13.4561 19.7291C13.1543 19.9045 12.8119 19.9979 12.4629 20ZM18.4629 17H6.46289V16C6.46289 15.7348 6.56825 15.4804 6.75578 15.2929C6.94332 15.1054 7.19767 15 7.46289 15H17.4629C17.7281 15 17.9825 15.1054 18.17 15.2929C18.3575 15.4804 18.4629 15.7348 18.4629 16V17Z" fill="#233BEF"/>
</svg>
