<svg width="25" height="24" viewBox="0 0 25 24" fill="none" xmlns="http://www.w3.org/2000/svg">
<path d="M20.5558 9.32013L6.55582 2.32013C6.00331 2.04514 5.37944 1.94724 4.76926 2.03978C4.15908 2.13232 3.59228 2.4108 3.14615 2.83724C2.70003 3.26369 2.39628 3.81735 2.27632 4.42274C2.15636 5.02813 2.22602 5.65578 2.47582 6.22013L4.87582 11.5901C4.93028 11.72 4.95833 11.8593 4.95833 12.0001C4.95833 12.1409 4.93028 12.2803 4.87582 12.4101L2.47582 17.7801C2.27252 18.2368 2.18658 18.7371 2.2258 19.2355C2.26502 19.7339 2.42817 20.2145 2.70041 20.6338C2.97265 21.0531 3.34535 21.3977 3.78465 21.6363C4.22394 21.875 4.71591 22 5.21582 22.0001C5.68405 21.9955 6.14531 21.8861 6.56582 21.6801L20.5658 14.6801C21.0624 14.4303 21.4798 14.0474 21.7715 13.5742C22.0632 13.101 22.2176 12.556 22.2176 12.0001C22.2176 11.4442 22.0632 10.8993 21.7715 10.4261C21.4798 9.95282 21.0624 9.56994 20.5658 9.32013H20.5558ZM19.6658 12.8901L5.66582 19.8901C5.48199 19.9784 5.27555 20.0084 5.07421 19.976C4.87287 19.9436 4.68623 19.8504 4.53934 19.709C4.39244 19.5675 4.2923 19.3845 4.25235 19.1846C4.2124 18.9846 4.23455 18.7772 4.31582 18.5901L6.70582 13.2201C6.73676 13.1484 6.76348 13.075 6.78582 13.0001H13.6758C13.941 13.0001 14.1954 12.8948 14.3829 12.7072C14.5705 12.5197 14.6758 12.2653 14.6758 12.0001C14.6758 11.7349 14.5705 11.4806 14.3829 11.293C14.1954 11.1055 13.941 11.0001 13.6758 11.0001H6.78582C6.76348 10.9253 6.73676 10.8518 6.70582 10.7801L4.31582 5.41013C4.23455 5.22309 4.2124 5.01568 4.25235 4.8157C4.2923 4.61572 4.39244 4.43273 4.53934 4.29128C4.68623 4.14982 4.87287 4.05666 5.07421 4.02428C5.27555 3.9919 5.48199 4.02186 5.66582 4.11013L19.6658 11.1101C19.8296 11.194 19.9671 11.3215 20.0631 11.4786C20.1591 11.6356 20.2099 11.8161 20.2099 12.0001C20.2099 12.1842 20.1591 12.3647 20.0631 12.5217C19.9671 12.6787 19.8296 12.8062 19.6658 12.8901Z" fill="#979797"/>
</svg>
