<svg width="25" height="24" viewBox="0 0 25 24" fill="none" xmlns="http://www.w3.org/2000/svg">
<path d="M14.66 12.21C14.7534 12.3027 14.8643 12.376 14.9861 12.4258C15.1079 12.4755 15.2384 12.5008 15.37 12.5C15.5016 12.5008 15.6321 12.4755 15.7539 12.4258C15.8757 12.376 15.9866 12.3027 16.08 12.21C16.1737 12.117 16.2481 12.0064 16.2989 11.8846C16.3497 11.7627 16.3758 11.632 16.3758 11.5C16.3758 11.368 16.3497 11.2373 16.2989 11.1154C16.2481 10.9936 16.1737 10.883 16.08 10.79L15.29 10L16.08 9.21C16.1732 9.11676 16.2472 9.00607 16.2977 8.88425C16.3481 8.76243 16.3741 8.63186 16.3741 8.5C16.3741 8.36814 16.3481 8.23757 16.2977 8.11575C16.2472 7.99393 16.1732 7.88324 16.08 7.79C15.9868 7.69676 15.8761 7.6228 15.7543 7.57234C15.6324 7.52188 15.5019 7.49591 15.37 7.49591C15.2381 7.49591 15.1076 7.52188 14.9858 7.57234C14.8639 7.6228 14.7532 7.69676 14.66 7.79L13.16 9.29C13.0663 9.38296 12.9919 9.49356 12.9411 9.61542C12.8903 9.73728 12.8642 9.86799 12.8642 10C12.8642 10.132 12.8903 10.2627 12.9411 10.3846C12.9919 10.5064 13.0663 10.617 13.16 10.71L14.66 12.21ZM9.58 12.21L11.08 10.71C11.1737 10.617 11.2481 10.5064 11.2989 10.3846C11.3497 10.2627 11.3758 10.132 11.3758 10C11.3758 9.86799 11.3497 9.73728 11.2989 9.61542C11.2481 9.49356 11.1737 9.38296 11.08 9.29L9.58 7.79C9.3917 7.6017 9.13631 7.49591 8.87 7.49591C8.6037 7.49591 8.34831 7.6017 8.16 7.79C7.9717 7.9783 7.86591 8.2337 7.86591 8.5C7.86591 8.7663 7.9717 9.0217 8.16 9.21L8.96 10L8.16 10.79C8.06628 10.883 7.99188 10.9936 7.94111 11.1154C7.89034 11.2373 7.86421 11.368 7.86421 11.5C7.86421 11.632 7.89034 11.7627 7.94111 11.8846C7.99188 12.0064 8.06628 12.117 8.16 12.21C8.25344 12.3027 8.36426 12.376 8.4861 12.4258C8.60794 12.4755 8.7384 12.5008 8.87 12.5C9.00161 12.5008 9.13207 12.4755 9.25391 12.4258C9.37575 12.376 9.48656 12.3027 9.58 12.21ZM14.86 14.21C14.1915 14.749 13.3587 15.0429 12.5 15.0429C11.6413 15.0429 10.8085 14.749 10.14 14.21C9.93579 14.0403 9.67251 13.9586 9.40808 13.983C9.14365 14.0074 8.89974 14.1358 8.73 14.34C8.56027 14.5442 8.4786 14.8075 8.50298 15.0719C8.52736 15.3364 8.65579 15.5803 8.86 15.75C9.88134 16.6026 11.1696 17.0696 12.5 17.0696C13.8304 17.0696 15.1187 16.6026 16.14 15.75C16.3442 15.5803 16.4726 15.3364 16.497 15.0719C16.5214 14.8075 16.4397 14.5442 16.27 14.34C16.186 14.2389 16.0828 14.1553 15.9665 14.0941C15.8501 14.0328 15.7229 13.9951 15.5919 13.983C15.3275 13.9586 15.0642 14.0403 14.86 14.21ZM12.5 2C10.5222 2 8.58879 2.58649 6.9443 3.6853C5.29981 4.78412 4.01809 6.3459 3.26121 8.17317C2.50433 10.0004 2.3063 12.0111 2.69215 13.9509C3.078 15.8907 4.03041 17.6725 5.42894 19.0711C6.82746 20.4696 8.60929 21.422 10.5491 21.8079C12.4889 22.1937 14.4996 21.9957 16.3268 21.2388C18.1541 20.4819 19.7159 19.2002 20.8147 17.5557C21.9135 15.9112 22.5 13.9778 22.5 12C22.5 10.6868 22.2413 9.38642 21.7388 8.17317C21.2363 6.95991 20.4997 5.85752 19.5711 4.92893C18.6425 4.00035 17.5401 3.26375 16.3268 2.7612C15.1136 2.25866 13.8132 2 12.5 2ZM12.5 20C10.9178 20 9.37104 19.5308 8.05544 18.6518C6.73985 17.7727 5.71447 16.5233 5.10897 15.0615C4.50347 13.5997 4.34504 11.9911 4.65372 10.4393C4.9624 8.88743 5.72433 7.46197 6.84315 6.34315C7.96197 5.22433 9.38743 4.4624 10.9393 4.15372C12.4911 3.84504 14.0997 4.00346 15.5615 4.60896C17.0233 5.21447 18.2727 6.23984 19.1518 7.55544C20.0308 8.87103 20.5 10.4177 20.5 12C20.5 14.1217 19.6572 16.1566 18.1569 17.6569C16.6566 19.1571 14.6217 20 12.5 20Z" fill="#979797"/>
</svg>
