<svg width="25" height="24" viewBox="0 0 25 24" fill="none" xmlns="http://www.w3.org/2000/svg">
<path d="M18.5 13.18V10C18.4986 8.58312 17.9958 7.21247 17.0806 6.13077C16.1655 5.04908 14.8971 4.32615 13.5 4.09V3C13.5 2.73478 13.3946 2.48043 13.2071 2.29289C13.0196 2.10536 12.7652 2 12.5 2C12.2348 2 11.9804 2.10536 11.7929 2.29289C11.6054 2.48043 11.5 2.73478 11.5 3V4.09C10.1029 4.32615 8.83452 5.04908 7.91939 6.13077C7.00425 7.21247 6.50144 8.58312 6.5 10V13.18C5.91645 13.3863 5.411 13.7681 5.05294 14.2729C4.69488 14.7778 4.50174 15.3811 4.5 16V18C4.5 18.2652 4.60536 18.5196 4.79289 18.7071C4.98043 18.8946 5.23478 19 5.5 19H8.64C8.87028 19.8474 9.373 20.5954 10.0706 21.1287C10.7682 21.6621 11.6219 21.951 12.5 21.951C13.3781 21.951 14.2318 21.6621 14.9294 21.1287C15.627 20.5954 16.1297 19.8474 16.36 19H19.5C19.7652 19 20.0196 18.8946 20.2071 18.7071C20.3946 18.5196 20.5 18.2652 20.5 18V16C20.4983 15.3811 20.3051 14.7778 19.9471 14.2729C19.589 13.7681 19.0835 13.3863 18.5 13.18ZM8.5 10C8.5 8.93913 8.92143 7.92172 9.67157 7.17157C10.4217 6.42143 11.4391 6 12.5 6C13.5609 6 14.5783 6.42143 15.3284 7.17157C16.0786 7.92172 16.5 8.93913 16.5 10V13H8.5V10ZM12.5 20C12.151 19.9979 11.8086 19.9045 11.5068 19.7291C11.2051 19.5536 10.9545 19.3023 10.78 19H14.22C14.0455 19.3023 13.7949 19.5536 13.4932 19.7291C13.1914 19.9045 12.849 19.9979 12.5 20ZM18.5 17H6.5V16C6.5 15.7348 6.60536 15.4804 6.79289 15.2929C6.98043 15.1054 7.23478 15 7.5 15H17.5C17.7652 15 18.0196 15.1054 18.2071 15.2929C18.3946 15.4804 18.5 15.7348 18.5 16V17Z" fill="#979797"/>
</svg>
