<svg width="25" height="24" viewBox="0 0 25 24" fill="none" xmlns="http://www.w3.org/2000/svg">
<path d="M16.2105 12.7096C17.1909 11.9383 17.9065 10.8806 18.2577 9.68358C18.609 8.4866 18.5784 7.2099 18.1703 6.0311C17.7621 4.85231 16.9967 3.83003 15.9806 3.10649C14.9644 2.38296 13.7479 1.99414 12.5005 1.99414C11.253 1.99414 10.0366 2.38296 9.02041 3.10649C8.00423 3.83003 7.23883 4.85231 6.8307 6.0311C6.42257 7.2099 6.392 8.4866 6.74325 9.68358C7.09449 10.8806 7.81009 11.9383 8.79048 12.7096C7.11056 13.3827 5.64477 14.499 4.54938 15.9396C3.45398 17.3801 2.77005 19.0909 2.57048 20.8896C2.55604 21.021 2.5676 21.1538 2.60451 21.2807C2.64142 21.4075 2.70295 21.5259 2.7856 21.629C2.9525 21.8371 3.19527 21.9705 3.46049 21.9996C3.7257 22.0288 3.99164 21.9514 4.19981 21.7845C4.40798 21.6176 4.54131 21.3749 4.57049 21.1096C4.79007 19.1548 5.72217 17.3494 7.1887 16.0384C8.65524 14.7274 10.5534 14.0027 12.5205 14.0027C14.4876 14.0027 16.3857 14.7274 17.8523 16.0384C19.3188 17.3494 20.2509 19.1548 20.4705 21.1096C20.4977 21.3554 20.6149 21.5823 20.7996 21.7467C20.9843 21.911 21.2233 22.0011 21.4705 21.9996H21.5805C21.8426 21.9695 22.0822 21.8369 22.247 21.6309C22.4119 21.4248 22.4886 21.162 22.4605 20.8996C22.26 19.0958 21.5724 17.3806 20.4713 15.9378C19.3703 14.4951 17.8974 13.3791 16.2105 12.7096ZM12.5005 11.9996C11.7094 11.9996 10.936 11.765 10.2782 11.3255C9.62041 10.886 9.10772 10.2613 8.80497 9.53037C8.50222 8.79947 8.423 7.9952 8.57734 7.21928C8.73168 6.44335 9.11265 5.73062 9.67206 5.17121C10.2315 4.6118 10.9442 4.23084 11.7201 4.0765C12.496 3.92215 13.3003 4.00137 14.0312 4.30412C14.7621 4.60687 15.3868 5.11956 15.8264 5.77736C16.2659 6.43515 16.5005 7.20851 16.5005 7.99964C16.5005 9.0605 16.0791 10.0779 15.3289 10.8281C14.5788 11.5782 13.5614 11.9996 12.5005 11.9996Z" fill="#979797"/>
</svg>
