<svg width="25" height="24" viewBox="0 0 25 24" fill="none" xmlns="http://www.w3.org/2000/svg">
<path d="M20.5001 7.99952L14.5001 2.73952C13.9501 2.24756 13.238 1.97559 12.5001 1.97559C11.7622 1.97559 11.0501 2.24756 10.5001 2.73952L4.50009 7.99952C4.18246 8.28359 3.92899 8.63207 3.75657 9.02176C3.58414 9.41145 3.49671 9.8334 3.50009 10.2595V18.9995C3.50009 19.7952 3.81617 20.5582 4.37877 21.1208C4.94138 21.6834 5.70445 21.9995 6.50009 21.9995H18.5001C19.2957 21.9995 20.0588 21.6834 20.6214 21.1208C21.184 20.5582 21.5001 19.7952 21.5001 18.9995V10.2495C21.5021 9.82508 21.4139 9.40506 21.2416 9.0172C21.0692 8.62934 20.8165 8.28247 20.5001 7.99952ZM14.5001 19.9995H10.5001V14.9995C10.5001 14.7343 10.6055 14.4799 10.793 14.2924C10.9805 14.1049 11.2349 13.9995 11.5001 13.9995H13.5001C13.7653 13.9995 14.0197 14.1049 14.2072 14.2924C14.3947 14.4799 14.5001 14.7343 14.5001 14.9995V19.9995ZM19.5001 18.9995C19.5001 19.2647 19.3947 19.5191 19.2072 19.7066C19.0197 19.8942 18.7653 19.9995 18.5001 19.9995H16.5001V14.9995C16.5001 14.2039 16.184 13.4408 15.6214 12.8782C15.0588 12.3156 14.2957 11.9995 13.5001 11.9995H11.5001C10.7044 11.9995 9.94138 12.3156 9.37877 12.8782C8.81616 13.4408 8.50009 14.2039 8.50009 14.9995V19.9995H6.50009C6.23488 19.9995 5.98052 19.8942 5.79299 19.7066C5.60545 19.5191 5.50009 19.2647 5.50009 18.9995V10.2495C5.50027 10.1075 5.53069 9.96721 5.58931 9.8379C5.64794 9.70858 5.73343 9.59323 5.8401 9.49952L11.8401 4.24952C12.0226 4.0892 12.2572 4.00078 12.5001 4.00078C12.743 4.00078 12.9776 4.0892 13.1601 4.24952L19.1601 9.49952C19.2668 9.59323 19.3523 9.70858 19.4109 9.8379C19.4695 9.96721 19.4999 10.1075 19.5001 10.2495V18.9995Z" fill="#979797"/>
</svg>
