<svg width="33" height="32" viewBox="0 0 33 32" fill="none" xmlns="http://www.w3.org/2000/svg">
<rect x="0.5" width="32" height="32" rx="16" fill="#F4F4F4"/>
<path d="M13.1771 20.5458L13.6839 20.8419C14.5385 21.3404 15.5106 21.6021 16.5 21.6C17.6076 21.6 18.6903 21.2716 19.6112 20.6562C20.5321 20.0409 21.2499 19.1663 21.6737 18.143C22.0976 17.1198 22.2085 15.9938 21.9924 14.9075C21.7763 13.8212 21.243 12.8234 20.4598 12.0402C19.6766 11.257 18.6788 10.7237 17.5925 10.5076C16.5062 10.2915 15.3802 10.4024 14.357 10.8263C13.3337 11.2501 12.4591 11.9679 11.8438 12.8888C11.2284 13.8097 10.9 14.8924 10.9 16C10.898 16.9897 11.1599 17.962 11.6588 18.8168L11.9542 19.3236L11.4971 21.0043L13.1771 20.5458ZM9.50281 23L10.4492 19.5224C9.82548 18.4534 9.49784 17.2376 9.50001 16C9.50001 12.1339 12.6339 9 16.5 9C20.3661 9 23.5 12.1339 23.5 16C23.5 19.8661 20.3661 23 16.5 23C15.2629 23.0021 14.0476 22.6747 12.979 22.0515L9.50281 23ZM13.9737 12.7156C14.068 12.7091 14.162 12.7081 14.2558 12.7128C14.2936 12.7156 14.3314 12.7193 14.3692 12.724C14.4805 12.7366 14.603 12.8045 14.6443 12.8983C14.8529 13.372 15.0554 13.848 15.2519 14.3263C15.2953 14.4327 15.2694 14.5692 15.1868 14.7022C15.1448 14.7701 15.079 14.8653 15.0027 14.9626C14.9236 15.0641 14.7535 15.2503 14.7535 15.2503C14.7535 15.2503 14.6842 15.3329 14.7108 15.4358C14.7206 15.475 14.7528 15.5317 14.7822 15.5793L14.8235 15.6458C15.0027 15.9447 15.2435 16.2478 15.5375 16.5334C15.6215 16.6146 15.7034 16.6979 15.7916 16.7756C16.1192 17.0647 16.4902 17.3006 16.8906 17.4756L16.8941 17.477C16.9536 17.5029 16.9837 17.5169 17.0705 17.554C17.1139 17.5722 17.1585 17.5876 17.2042 17.6002C17.221 17.6049 17.238 17.6074 17.2553 17.6079C17.2952 17.6094 17.3349 17.6012 17.3709 17.5838C17.4069 17.5665 17.4381 17.5406 17.4618 17.5085C17.9679 16.8953 18.0148 16.8554 18.0183 16.8554V16.8568C18.0535 16.8239 18.0953 16.7989 18.1409 16.7836C18.1866 16.7682 18.235 16.7629 18.2829 16.7679C18.3258 16.7698 18.3671 16.7791 18.4068 16.7959C18.7785 16.966 19.3868 17.2313 19.3868 17.2313L19.7942 17.414C19.8628 17.4469 19.9251 17.5246 19.9272 17.5995C19.93 17.6464 19.9342 17.722 19.9181 17.8606C19.8957 18.0419 19.8411 18.2596 19.7865 18.3737C19.7487 18.4513 19.6991 18.5226 19.6395 18.5851C19.5688 18.6592 19.4915 18.7267 19.4085 18.7867C19.3506 18.8296 19.3215 18.8506 19.321 18.8497C19.2339 18.9049 19.1445 18.9563 19.0529 19.0037C18.8726 19.0992 18.6736 19.1542 18.4698 19.1647C18.3403 19.1717 18.2108 19.1815 18.0806 19.1745C18.075 19.1745 17.683 19.1136 17.683 19.1136C16.6878 18.8518 15.7674 18.3614 14.995 17.6814C14.8368 17.5421 14.6898 17.3923 14.54 17.2432C13.9184 16.6237 13.4473 15.9552 13.161 15.3238C13.0158 15.0139 12.9371 14.6769 12.93 14.3347C12.9274 13.9096 13.0665 13.4958 13.3255 13.1587C13.3766 13.0929 13.4249 13.0243 13.5082 12.9452C13.5964 12.8612 13.6531 12.8164 13.714 12.7856C13.7952 12.7457 13.8834 12.7219 13.9737 12.7156Z" fill="black"/>
</svg>
